<svg width="1184" height="721" viewBox="0 0 1184 721" fill="none" xmlns="http://www.w3.org/2000/svg">
<path fill-rule="evenodd" clip-rule="evenodd" d="M946.436 222.178L951.892 215.911L945.549 216.058L946.436 222.178ZM935.88 -122.286L936.14 -122.182L935.572 -119.072L933.96 -121.155L935.88 -122.286ZM1005.18 -94.7258L1006.47 -94.2131L1006.75 -90.9788L1001.67 -91.1299L1005.18 -94.7258ZM421.162 3.77693L421.158 3.7862L421.162 3.77693ZM399.251 58.87L399.055 59.3625L399.24 59.5434L399.251 58.87ZM826.096 -1.8937L826.069 -1.88277L825.304 -1.86422L825.336 -1.63628L818.06 0.797408L823.715 3.75646L825.498 -0.474198L826.13 3.93149L831.294 -1.98967L826.096 -1.8937ZM905.844 189.182L897.812 191.864L903.476 194.827L905.844 189.182ZM975.092 94.1345L967.061 96.8163L972.715 99.7754L975.092 94.1345ZM870.163 -146.775L869.491 -142.899L872.014 -144.424L870.163 -146.775ZM1038.4 255.888L1036.09 258.481L1038.74 258.446L1038.4 255.888ZM1026.04 333.614L1023.74 336.207L1026.38 336.172L1026.04 333.614ZM1031.46 145.888L1029.16 148.481L1031.8 148.446L1031.46 145.888ZM941.05 240.344L938.748 242.937L941.393 242.902L941.05 240.344ZM890.143 32.8757L887.841 35.4686L890.485 35.4332L890.143 32.8757ZM891.778 -73.683L889.476 -71.09L892.12 -71.1254L891.778 -73.683ZM696.93 -57.6962L694.628 -55.1033L697.272 -55.1386L696.93 -57.6962ZM548.685 240.639L546.552 241.351L548.057 242.133L548.685 240.639ZM675.493 450.409L667.461 453.091L673.116 456.05L675.493 450.409ZM744.751 355.365L736.719 358.047L742.374 361.006L744.751 355.365ZM922.045 443.427L920.636 451.594L925.962 448.374L922.045 443.427ZM604.756 136.778L603.644 143.244L607.858 140.691L604.756 136.778ZM941.781 571.851L939.48 574.444L942.124 574.408L941.781 571.851ZM808.042 517.124L805.74 519.717L808.384 519.682L808.042 517.124ZM903.344 521.416L901.042 524.009L903.686 523.974L903.344 521.416ZM801.118 407.119L798.817 409.712L801.461 409.676L801.118 407.119ZM710.699 501.571L708.397 504.164L711.041 504.128L710.699 501.571ZM659.801 294.106L657.5 296.699L660.144 296.664L659.801 294.106ZM661.427 187.544L659.125 190.137L661.769 190.101L661.427 187.544ZM466.588 203.534L464.287 206.127L466.931 206.092L466.588 203.534ZM766.442 122.55L763.074 123.676L765.447 124.91L766.442 122.55ZM792.664 222.474L784.629 225.165L790.287 228.115L792.664 222.474ZM833.032 153.166L830.73 155.759L833.375 155.723L833.032 153.166ZM455.016 113.289L457.068 119.702L459.62 115.497L455.016 113.289ZM614.164 63.8307L616.216 70.243L618.769 66.0386L614.164 63.8307ZM541.283 61.5572L543.336 67.9696L545.888 63.7652L541.283 61.5572ZM779.095 -60.6949L781.039 -54.6269L783.457 -58.605L779.095 -60.6949ZM613.41 -128.126L620.105 -126.496L617.566 -130.842L613.41 -128.126ZM719.686 -135.063L721.784 -133.11L721.801 -135.169L719.686 -135.063ZM671.85 -34.7607L673.939 -32.8109L673.965 -34.8667L672.737 -34.8061L673.334 -38.0447L671.095 -36.7291L672.59 -34.8001L671.85 -34.7607ZM677.33 -108.506L679.418 -106.556L679.445 -108.612L677.33 -108.506ZM607.645 -219.86L609.73 -217.901L609.756 -219.957L607.645 -219.86ZM735.679 -20.095L737.768 -18.1452L737.794 -20.201L735.679 -20.095ZM581.009 -36.5682L583.094 -34.6091L583.121 -36.6649L581.009 -36.5682ZM657.061 39.8345L658.63 41.2978L657.664 41.9898L661.185 42.6907L659.769 40.4807L659.174 40.9114L659.186 39.7324L657.061 39.8345ZM484.975 65.8099L487.064 67.7598L487.09 65.704L484.975 65.8099ZM406.38 209.97L408.469 211.92L408.495 209.864L406.38 209.97ZM564.931 216.181L566.745 217.559L566.592 215.927L564.931 216.181ZM676.494 4.78482L683.325 9.99812L682.731 3.84276L676.494 4.78482ZM555.022 -3.30737L561.856 1.89664L561.262 -4.25872L555.022 -3.30737ZM532.405 -193.756L540.296 -196.785L534.522 -199.501L532.405 -193.756ZM443.185 223.402L449.434 221.001L444.853 218.846L443.185 223.402ZM660.347 -138.043L663.891 -137.483L662.384 -139.633L660.347 -138.043ZM610.741 -218.37L614.285 -217.811L612.768 -219.964L610.741 -218.37ZM734.88 -167.72L738.424 -167.161L736.916 -169.31L734.88 -167.72ZM568.496 -76.0256L572.04 -75.4663L570.532 -77.6156L568.496 -76.0256ZM701.3 -50.2758L704.844 -49.7165L703.337 -51.8658L701.3 -50.2758ZM506.672 72.3401L510.216 72.8995L508.699 70.7463L506.672 72.3401ZM455.632 150.942L459.176 151.502L457.668 149.352L455.632 150.942ZM578.606 302.484L582.15 303.043L580.642 300.894L578.606 302.484ZM412.569 25.4669L419.403 30.671L418.809 24.5156L412.569 25.4669ZM506.563 358.184L510.989 353.218L505.904 353.283L506.563 358.184ZM374.439 253.046L378.879 248.075L373.797 248.131L374.439 253.046ZM365.298 346.869L369.734 341.907L364.649 341.973L365.298 346.869ZM305.627 331.64L306.161 328.925L304.356 329.962L305.627 331.64ZM448.466 357.937L449 355.222L447.195 356.258L448.466 357.937ZM490.469 434.154L491.003 431.439L489.198 432.475L490.469 434.154ZM617.906 348.537L618.439 345.822L616.634 346.858L617.906 348.537ZM1034.19 302.255L1027.58 296.777L1027.91 302.943L1034.19 302.255ZM952.227 543.988L945.972 538.811L946.285 544.638L952.227 543.988ZM968.312 472.018L964.791 471.317L966.211 473.518L968.312 472.018ZM1006.99 356.191L1003.47 355.49L1004.89 357.691L1006.99 356.191ZM1145 9.15779L1141.48 8.45685L1142.9 10.6576L1145 9.15779ZM800.966 26.3811L799.204 24.927L799.288 26.5641L800.966 26.3811ZM680.228 232.795L673.625 227.317L673.948 233.483L680.228 232.795ZM801.388 245.821L794.785 240.343L795.117 246.512L801.388 245.821ZM598.267 474.528L592.013 469.35L592.325 475.178L598.267 474.528ZM815.749 436.796L807.724 439.491L813.386 442.432L815.749 436.796ZM923.072 24.1359L916.715 26.2783L921.203 28.6119L923.072 24.1359ZM711.475 514.471L707.954 513.77L709.374 515.97L711.475 514.471ZM690.192 375.983L686.671 375.282L688.088 377.492L690.192 375.983ZM736.332 458.16L732.811 457.46L734.228 459.67L736.332 458.16ZM886.064 530.708L882.542 530.007L883.959 532.217L886.064 530.708ZM614.353 402.558L610.831 401.857L612.248 404.067L614.353 402.558ZM784.749 317.84L781.227 317.139L782.644 319.349L784.749 317.84ZM653.022 286.718L649.5 286.017L650.921 288.218L653.022 286.718ZM811.507 145.251L807.986 144.55L809.402 146.76L811.507 145.251ZM907.478 95.9357L903.957 95.2348L905.374 97.4448L907.478 95.9357ZM791.032 -60.3063L787.51 -61.0072L788.931 -58.8065L791.032 -60.3063ZM1020.56 153.339L1017.79 151.04L1017.93 153.626L1020.56 153.339ZM945.128 222.917L938.848 223.605L938.525 217.44L945.128 222.917ZM1028.16 223.901L1024.64 223.2L1026.06 225.41L1028.16 223.901ZM865.514 -112.948L860.861 -108.169L865.95 -108.018L865.514 -112.948ZM993.117 -2.63472L988.463 2.14402L993.552 2.29513L993.117 -2.63472ZM1111.38 -1.01667L1110.73 1.67479L1112.57 0.717212L1111.38 -1.01667ZM1131.75 59.633L1131.1 62.3245L1132.94 61.3669L1131.75 59.633ZM1037.04 22.0209L1036.39 24.7124L1038.23 23.7455L1037.04 22.0209ZM923.606 -110.336L922.959 -107.644L924.799 -108.602L923.606 -110.336ZM753.712 -107.864L753.065 -105.172L754.919 -106.135L753.712 -107.864ZM509.457 270.399L516.06 275.877L515.737 269.711L509.457 270.399ZM388.303 257.332L394.905 262.81L394.583 256.645L388.303 257.332ZM591.495 28.6965L597.746 33.8836L597.437 28.0463L591.495 28.6965ZM478.296 -11.2963L481.818 -10.5954L480.401 -12.8054L478.296 -11.2963ZM475.868 71.7554L479.39 72.4564L477.973 70.2464L475.868 71.7554ZM453.429 45.01L456.951 45.711L455.534 43.501L453.429 45.01ZM575.394 100.65L578.916 101.351L577.499 99.1408L575.394 100.65ZM404.961 185.321L408.483 186.022L407.066 183.812L404.961 185.321ZM536.677 216.471L540.198 217.172L538.781 214.962L536.677 216.471ZM381.805 349.721L385.326 350.422L383.91 348.212L381.805 349.721ZM578.279 -201.083L583.935 -196.39L583.659 -201.666L578.279 -201.083ZM978.618 -33.3465L984.332 -35.2713L980.297 -37.3711L978.618 -33.3465ZM591.121 -75.5293L594.643 -74.8284L593.226 -77.0384L591.121 -75.5293ZM626.973 -119.191L630.495 -118.49L629.078 -120.7L626.973 -119.191ZM863.405 339.973L870.008 345.451L869.685 339.285L863.405 339.973ZM742.24 326.902L748.843 332.38L748.521 326.215L742.24 326.902ZM945.443 98.2704L951.693 103.457L951.381 97.6295L945.443 98.2704ZM719.705 -33.7872L725.915 -28.6378L725.611 -34.4302L719.705 -33.7872ZM727.938 135.918L735.964 133.223L730.296 130.27L727.938 135.918ZM832.244 58.2776L835.765 58.9785L834.348 56.7685L832.244 58.2776ZM853.477 196.778L856.999 197.479L855.582 195.269L853.477 196.778ZM807.367 114.58L810.889 115.281L809.472 113.071L807.367 114.58ZM929.342 170.224L932.863 170.925L931.446 168.715L929.342 170.224ZM758.899 254.891L762.421 255.592L761.004 253.382L758.899 254.891ZM890.624 286.045L894.146 286.746L892.725 284.545L890.624 286.045ZM732.089 427.47L735.61 428.171L734.194 425.961L732.089 427.47ZM636.1 476.746L639.621 477.447L638.204 475.237L636.1 476.746ZM523.037 419.319L525.811 421.617L525.669 419.032L523.037 419.319ZM598.496 349.761L605.099 355.239L604.776 349.073L598.496 349.761ZM515.461 348.754L518.982 349.455L517.562 347.255L515.461 348.754ZM580.344 -142.191L573.741 -147.669L574.074 -141.499L580.344 -142.191ZM473.258 -36.793L466.645 -42.2747L466.978 -36.1052L473.258 -36.793ZM572.775 28.7743L566.172 23.2965L566.505 29.4661L572.775 28.7743ZM349.256 277.867L343.002 272.689L343.314 278.517L349.256 277.867ZM595.425 389.456L589.215 384.306L589.519 390.099L595.425 389.456ZM587.137 219.75L579.111 222.445L584.783 225.389L587.137 219.75ZM732.771 -174.047L728.962 -172.764L731.648 -171.363L732.771 -174.047ZM482.863 297.424L479.341 296.723L480.758 298.934L482.863 297.424ZM495.712 186.178L492.19 185.477L493.611 187.678L495.712 186.178ZM507.72 241.114L504.198 240.413L505.615 242.623L507.72 241.114ZM657.451 313.662L653.93 312.961L655.35 315.162L657.451 313.662ZM385.73 185.508L382.209 184.807L383.629 187.007L385.73 185.508ZM556.14 100.784L552.618 100.083L554.039 102.284L556.14 100.784ZM424.409 69.6716L420.888 68.9707L422.305 71.1806L424.409 69.6716ZM582.894 -71.7953L579.373 -72.4962L580.793 -70.2955L582.894 -71.7953ZM678.866 -121.111L675.344 -121.811L676.765 -119.611L678.866 -121.111ZM793.127 -63.67L789.456 -66.712L789.644 -63.2902L793.127 -63.67ZM803.278 -12.4426L799.756 -13.1436L801.177 -10.9428L803.278 -12.4426ZM370.065 361.701L366.543 361L367.96 363.21L370.065 361.701ZM608.177 -209.683L603.785 -205.166L607.654 -205.059L604.653 -201.969L609.741 -201.818L609.676 -202.522L610.943 -200.888L611.57 -204.287L609.629 -203.133L609.302 -206.739L608.514 -205.933L608.177 -209.683ZM549.179 -226.883L548.522 -224.195L550.376 -225.158L549.179 -226.883ZM538.209 9.23756L530.174 11.9287L535.832 14.8784L538.209 9.23756ZM617.967 200.317L609.935 202.999L615.59 205.958L617.967 200.317ZM687.219 105.26L679.187 107.942L684.842 110.901L687.219 105.26ZM794.753 395.999L787.156 398.542L792.508 401.337L794.753 395.999ZM1019.94 275.357L1012.39 277.883L1017.71 280.668L1019.94 275.357ZM864.514 193.322L863.104 201.489L868.43 198.27L864.514 193.322ZM582.28 -135.653L581.608 -131.777L584.131 -133.302L582.28 -135.653ZM884.255 321.759L881.954 324.352L884.598 324.317L884.255 321.759ZM750.51 267.019L748.208 269.612L750.852 269.577L750.51 267.019ZM845.808 271.321L843.506 273.914L846.15 273.878L845.808 271.321ZM981.782 183.46L979.48 186.053L982.124 186.017L981.782 183.46ZM738.167 344.74L735.865 347.333L738.509 347.297L738.167 344.74ZM743.586 157.014L741.285 159.607L743.929 159.572L743.586 157.014ZM653.163 251.475L650.862 254.068L653.506 254.033L653.163 251.475ZM602.266 44.0107L599.964 46.6037L602.608 46.5683L602.266 44.0107ZM603.891 -62.5517L601.589 -59.9587L604.234 -59.9942L603.891 -62.5517ZM709.503 -128.513L705.044 -127.025L708.182 -125.39L709.503 -128.513ZM760.055 -110.195L757.754 -107.602L760.398 -107.637L760.055 -110.195ZM887.98 450.316L885.678 452.909L888.322 452.873L887.98 450.316ZM909.913 503.355L907.612 505.948L910.256 505.913L909.913 503.355ZM473.512 337.861L465.48 340.543L471.135 343.502L473.512 337.861ZM789.593 536.584L782.036 539.11L787.359 541.894L789.593 536.584ZM536.264 380.37L534.855 388.537L540.181 385.318L536.264 380.37ZM751.431 444.686L749.129 447.279L751.773 447.244L751.431 444.686ZM513.235 418.241L510.934 420.834L513.578 420.798L513.235 418.241ZM371.924 305.241L369.622 307.834L372.266 307.799L371.924 305.241ZM373.55 198.679L371.248 201.272L373.892 201.236L373.55 198.679ZM478.564 133.686L475.197 134.811L477.57 136.045L478.564 133.686ZM481.171 236.443L473.14 239.125L478.794 242.084L481.171 236.443ZM545.159 164.292L542.857 166.885L545.501 166.849L545.159 164.292ZM491.218 -49.5598L493.162 -43.4918L495.58 -47.4699L491.218 -49.5598ZM447.802 -8.95993L449.89 -7.01011L449.917 -9.06587L447.802 -8.95993ZM765.898 33.4634L759.285 27.9818L759.608 34.1475L765.898 33.4634ZM637.169 191.403L630.566 185.925L630.889 192.09L637.169 191.403ZM758.325 204.438L751.722 198.96L752.045 205.126L758.325 204.438ZM555.208 433.136L548.954 427.958L549.266 433.786L555.208 433.136ZM772.7 395.408L764.674 398.103L770.333 401.053L772.7 395.408ZM918.331 1.61985L914.522 2.90309L917.207 4.30472L918.331 1.61985ZM668.412 473.088L664.891 472.387L666.312 474.588L668.412 473.088ZM647.133 334.59L643.612 333.89L645.032 336.09L647.133 334.59ZM693.27 416.778L689.748 416.077L691.165 418.287L693.27 416.778ZM843.001 489.325L839.48 488.624L840.9 490.825L843.001 489.325ZM571.29 361.175L567.769 360.474L569.189 362.675L571.29 361.175ZM741.69 276.447L738.168 275.747L739.585 277.957L741.69 276.447ZM609.969 245.339L606.448 244.638L607.868 246.839L609.969 245.339ZM768.448 103.859L764.927 103.158L766.347 105.359L768.448 103.859ZM864.416 54.5528L860.894 53.8519L862.311 56.0619L864.416 54.5528ZM747.982 -101.695L744.461 -102.395L745.878 -100.185L747.982 -101.695ZM978.681 111.984L975.01 108.942L975.198 112.364L978.681 111.984ZM988.837 163.225L985.316 162.524L986.737 164.724L988.837 163.225ZM404.356 134.974L397.744 129.492L398.076 135.662L404.356 134.974ZM418.731 325.944L410.705 328.639L416.364 331.589L418.731 325.944ZM526.054 -86.7165L519.697 -84.5741L524.185 -82.2404L526.054 -86.7165ZM339.314 347.308L335.793 346.607L337.209 348.817L339.314 347.308ZM489.042 419.865L485.52 419.164L486.937 421.374L489.042 419.865ZM387.721 206.983L384.199 206.282L385.616 208.492L387.721 206.983ZM414.489 34.3986L410.967 33.6977L412.384 35.9077L414.489 34.3986ZM510.456 -14.9074L506.935 -15.6083L508.355 -13.4076L510.456 -14.9074ZM623.544 42.4861L620.769 40.1881L620.911 42.7735L623.544 42.4861ZM548.1 112.061L541.497 106.583L541.82 112.749C547.597 112.12 542.716 112.653 548.1 112.061ZM631.133 113.045L627.612 112.344L629.032 114.545L631.133 113.045ZM596.098 -113.487L591.445 -108.708L596.534 -108.557L596.098 -113.487ZM793.741 -34.0248L789.348 -29.5083L794.163 -29.3693L793.741 -34.0248ZM828.966 -119.347L828.309 -116.66L830.163 -117.623L828.966 -119.347ZM714.352 -111.873L713.705 -109.181L715.559 -110.144L714.352 -111.873ZM783.048 -142.343L782.402 -139.652L784.256 -140.615L783.048 -142.343ZM734.729 -51.2194L734.072 -48.5317L735.926 -49.4948L734.729 -51.2194ZM668.324 -189.12L667.677 -186.429L669.527 -187.383L668.324 -189.12ZM640.009 -88.8353L639.362 -86.1438L641.212 -87.0975L640.009 -88.8353ZM526.587 -221.188L525.94 -218.497L527.781 -219.454L526.587 -221.188ZM1077.6 90.324L1083.05 84.0569L1076.71 84.2031L1077.6 90.324ZM1067.57 207.602L1073.03 201.335L1066.69 201.481L1067.57 207.602ZM696.461 219.438L701.59 213.546L695.63 213.683L696.461 219.438ZM871.15 216.172L868.14 208.302L865.26 213.722L871.15 216.172ZM788.146 112.726L788.773 109.327L786.543 110.646L788.146 112.726ZM930.289 95.9674L930.916 92.5686L928.677 93.8842L930.289 95.9674ZM846.888 138.444L847.516 135.045L845.286 136.365L846.888 138.444ZM776.327 281.796L776.954 278.397L774.715 279.713L776.327 281.796ZM900.758 21.5679L901.385 18.1692L899.155 19.4886L900.758 21.5679ZM992.887 189.415L993.514 186.016L991.284 187.335L992.887 189.415ZM1021.24 62.3903L1021.87 58.9916L1019.64 60.311L1021.24 62.3903ZM602.465 -10.4613L607.139 -15.8239L601.708 -15.7022L602.465 -10.4613ZM718.721 1.38909L719.348 -2.00967L717.109 -0.694099L718.721 1.38909ZM758.087 -122.31L763.216 -128.202L757.245 -128.068L758.087 -122.31ZM837.952 -59.952L838.579 -63.3508L836.34 -62.0352L837.952 -59.952ZM1156.86 6.08095L1162.31 -0.186171L1155.97 -0.0399799L1156.86 6.08095ZM631.537 451.427L636.993 445.16L630.65 445.306L631.537 451.427ZM406.751 384.48L411.918 378.55L405.912 378.69L406.751 384.48ZM454.709 382.675L455.336 379.276L453.107 380.596L454.709 382.675ZM575.18 423.494L575.807 420.095L573.568 421.41L575.18 423.494ZM936.743 567.286L937.37 563.887L935.131 565.202L936.743 567.286ZM909.293 232.74L910.745 231.079L909.058 231.119L909.293 232.74ZM463.373 96.198L468.83 89.9309L462.486 90.0771L463.373 96.198ZM683.14 226.958L688.597 220.691L682.254 220.837L683.14 226.958ZM441.697 23.2868L446.86 17.3657L440.857 17.4966L441.697 23.2868ZM451.727 282.039L448.716 274.17L445.836 279.589L451.727 282.039ZM915.051 351.365L912.67 345.134L910.395 349.427L915.051 351.365ZM436.591 113.549L437.219 110.151L434.989 111.47L436.591 113.549ZM462.451 157.809L463.079 154.41L460.849 155.729L462.451 157.809ZM391.903 301.155L392.531 297.756L390.291 299.072L391.903 301.155ZM516.325 40.9233L516.952 37.5245L514.722 38.8439L516.325 40.9233ZM608.45 208.779L609.077 205.381L606.838 206.696L608.45 208.779ZM636.805 81.7457L637.432 78.3469L635.203 79.6663L636.805 81.7457ZM787.08 239.625L787.708 236.226L785.478 237.545L787.08 239.625ZM840.605 334.199L841.232 330.8L838.993 332.116L840.605 334.199ZM998.359 225.534L998.986 222.135L996.756 223.454L998.359 225.534ZM784.628 442.391L786.921 439.763L784.256 439.822L784.628 442.391ZM710.797 367.184L716.254 360.917L709.911 361.063L710.797 367.184ZM712.131 447.783L712.759 444.384L710.519 445.699L712.131 447.783ZM1054.73 299.339L1049.68 294.693L1049.66 299.628L1054.73 299.339ZM944.623 420.142L939.563 415.493L939.55 420.427L944.623 420.142ZM946.292 534.924L943.506 534.224L944.542 536.046L946.292 534.924ZM884.355 552.994L881.572 552.286L882.608 554.108L884.355 552.994ZM920.452 462.089L917.669 461.38L918.715 463.206L920.452 462.089ZM1046.34 190.643L1043.55 189.935L1044.59 191.757L1046.34 190.643ZM780.028 92.7305L785.485 86.4633L779.141 86.6095L780.028 92.7305ZM770.006 210.009L775.463 203.742L769.12 203.888L770.006 210.009ZM567.715 -29.8992L572.878 -35.8203L566.871 -35.6801L567.715 -29.8992ZM398.894 221.845L404.023 215.953L398.063 216.09L398.894 221.845ZM573.583 218.579L570.573 210.709L567.693 216.128L573.583 218.579ZM983.556 371.087L982.131 367.356L980.765 369.923L983.556 371.087ZM490.579 115.132L491.206 111.733L488.976 113.053L490.579 115.132ZM632.725 98.3645L633.353 94.9658L631.123 96.2851L632.725 98.3645ZM549.321 140.85L549.949 137.452L547.719 138.771L549.321 140.85ZM478.76 284.202L479.387 280.804L477.157 282.123L478.76 284.202ZM603.191 23.9744L603.818 20.5756L601.588 21.895L603.191 23.9744ZM695.32 191.821L695.947 188.423L693.717 189.742L695.32 191.821ZM723.671 64.7968L724.298 61.398L722.059 62.7136L723.671 64.7968ZM873.947 222.676L874.574 219.277L872.344 220.596L873.947 222.676ZM927.481 317.254L928.108 313.855L925.868 315.171L927.481 317.254ZM1085.23 208.589L1085.86 205.19L1083.62 206.505L1085.23 208.589ZM871.5 426.575L874.532 423.099L871.01 423.184L871.5 426.575ZM818.985 434.994L819.612 431.595L817.382 432.915L818.985 434.994ZM831.622 -131.743L837.079 -138.01L830.735 -137.864L831.622 -131.743ZM635.199 -123.173L632.188 -131.043L629.309 -125.623L635.199 -123.173ZM1063.54 -7.33167L1061.16 -13.5626L1058.88 -9.27344L1063.54 -7.33167ZM552.204 -226.616L552.831 -230.015L550.592 -228.699L552.204 -226.616ZM491.13 -65.6191L491.757 -69.0179L489.518 -67.7023L491.13 -65.6191ZM756.941 -149.917L757.568 -153.316L755.329 -152.001L756.941 -149.917ZM989.096 -24.4981L989.723 -27.8968L987.484 -26.5813L989.096 -24.4981ZM933.119 83.6946L935.413 81.0661L932.748 81.1255L933.119 83.6946ZM859.289 8.48737L864.745 2.22022L858.402 2.36643L859.289 8.48737ZM860.613 89.0818L861.24 85.683L859.001 86.9986L860.613 89.0818ZM1093.12 61.4355L1088.06 56.7864L1088.05 61.7212L1093.12 61.4355ZM1016.78 251.113L1012 246.714L1011.99 251.382L1016.78 251.113ZM1094.77 176.223L1091.99 175.514L1093.04 177.34L1094.77 176.223ZM1032.84 194.294L1030.05 193.585L1031.09 195.407L1032.84 194.294ZM1068.93 103.388L1066.15 102.68L1067.19 104.501L1068.93 103.388Z" fill="#999999"/>
<path fill-rule="evenodd" clip-rule="evenodd" d="M411.597 494.865L407.246 497.265L410.631 498.395L411.597 494.865ZM680.202 650.088L680.036 650.265L677.878 646.116L681.358 646.932L680.202 650.088ZM653.594 678.442L653.197 678.866L652.02 678.135L653.484 677.709L653.594 678.442ZM631.606 701.874L630.226 703.344L627.918 702.574L632.032 700.306L631.606 701.874ZM580.592 689.647L579.072 688.22L580.29 686.972L582.591 689.673L580.592 689.647ZM566.33 676.263L565.81 675.775L564.001 672.297L567.482 673.113L566.33 676.263ZM479.077 594.384L478.329 593.682L479.535 593.328L479.771 594.809L479.077 594.384ZM469.882 585.755L469.534 585.428L469.724 585.135L469.882 585.755ZM444.001 561.468L443.758 561.24L444.68 559.813L445.05 561.262L444.001 561.468ZM407.273 527.002L406.99 526.736L406.809 525.593L408.504 526.652L407.273 527.002ZM425.36 520.717L430.235 520.777L427.934 518.076L425.36 520.717ZM377.6 379.571L382.216 379.623L380.036 377.066L377.6 379.571ZM312.921 403.269L314.746 402.286L313.338 401.802L312.921 403.269ZM370.849 458.821L372.674 457.838L371.267 457.353L370.849 458.821ZM321.462 438.29L323.282 437.303L321.874 436.818L321.462 438.29ZM395.542 418.505L397.367 417.522L395.959 417.038L395.542 418.505ZM418.691 485.918L420.516 484.935L419.109 484.451L418.691 485.918ZM291.348 279.241L295.521 279.29L293.549 276.977L291.348 279.241ZM340.993 331.976L342.818 330.993L341.41 330.509L340.993 331.976ZM341.792 298.676L343.612 297.688L342.204 297.204L341.792 298.676ZM626.254 560.58L627.55 560.596L626.941 559.878L626.254 560.58ZM608.215 421.234L613.09 421.293L610.789 418.592L608.215 421.234ZM549.382 460.207L554.257 460.266L551.955 457.565L549.382 460.207ZM413.182 303.383L417.769 303.436L415.604 300.893L413.182 303.383ZM476.199 378.053L478.851 373.841L475.283 374.596L476.199 378.053ZM572.33 606.906L574.431 603.564L571.603 604.157L572.33 606.906ZM495.781 303.781L497.596 302.798L496.188 302.313L495.781 303.781ZM553.709 359.332L555.534 358.349L554.127 357.864L553.709 359.332ZM504.321 338.802L506.146 337.819L504.739 337.334L504.321 338.802ZM411.881 361.113L412.029 361.035L412.992 363.169L414.149 360.457L413.463 360.256L413.706 360.13L412.298 359.645L412.227 359.893L411.406 359.654L411.952 360.865L411.881 361.113ZM531.666 421.052L533.491 420.069L532.083 419.584L531.666 421.052ZM601.556 386.434L603.376 385.447L601.969 384.962L601.556 386.434ZM579.985 510.038L581.805 509.05L580.397 508.566L579.985 510.038ZM554.222 568.229L556.043 567.252L554.635 566.767L554.222 568.229ZM660.995 596.606L662.821 595.623L661.413 595.139L660.995 596.606ZM483.497 583.882L485.546 583.906L484.578 582.771L483.497 583.882ZM492.982 524.023L497.858 524.082L495.556 521.382L492.982 524.023ZM455.443 554.378L457.263 553.39L455.855 552.906L455.443 554.378ZM646.026 648.358L646.439 644.446L644.107 646.262L646.026 648.358ZM550.305 645.159L550.717 641.246L548.386 643.063L550.305 645.159ZM588.316 660.306L588.729 656.394L586.393 658.216L588.316 660.306ZM619.084 668.705L618.435 667.231L617.943 668.353L619.084 668.705ZM694.334 604.554L693.684 603.079L693.192 604.201L694.334 604.554ZM611.942 570.91L611.309 569.804L611.008 570.732L611.942 570.91ZM678.014 590.165L674.148 590.285L676.066 592.341L678.014 590.165ZM609.135 660.982L607.396 660L607.691 661.468L609.135 660.982ZM654.496 627.568L652.757 626.586L653.052 628.053L654.496 627.568ZM624.883 520.925L623.145 519.943L623.445 521.415L624.883 520.925ZM675.999 504.077L672.492 505.961L675.197 506.896L675.999 504.077ZM721.296 587L717.789 588.884L720.494 589.819L721.296 587ZM748.056 537.232L744.549 539.116L747.254 540.051L748.056 537.232ZM706.658 515.296L705.74 516.688L706.938 516.464L706.658 515.296ZM702.266 465.446L701.353 466.833L702.551 466.609L702.266 465.446ZM614.865 488.147L613.952 489.534L615.15 489.311L614.865 488.147ZM383.909 434.172L386.128 438.439L387.395 434.993L383.909 434.172ZM322.883 403.911L325.103 408.178L326.369 404.733L322.883 403.911ZM483.745 317.092L485.841 321.125L487.041 317.863L483.745 317.092ZM395.193 201.576L397.279 205.59L398.468 202.348L395.193 201.576ZM359.911 296.327L364.786 296.376L362.479 293.68L359.911 296.327ZM433.216 273.571L434.915 274.625L434.68 273.144L433.216 273.571ZM412.103 353.657L413.798 354.716L413.562 353.236L412.103 353.657ZM406.91 299.74L408.605 300.799L408.369 299.319L406.91 299.74ZM344.681 231.357L346.376 232.417L346.14 230.936L344.681 231.357ZM458.424 353.531L460.124 354.585L459.888 353.105L458.424 353.531ZM348.505 367.547L350.199 368.606L349.964 367.126L348.505 367.547ZM410.897 409.746L412.592 410.805L412.357 409.324L410.897 409.746ZM554.857 539.802L557.076 544.068L558.343 540.623L554.857 539.802ZM493.832 509.541L496.051 513.808L497.317 510.362L493.832 509.541ZM654.688 422.727L656.785 426.76L657.984 423.498L654.688 422.727ZM530.864 401.961L535.739 402.01L533.433 399.315L530.864 401.961ZM604.159 379.206L605.854 380.265L605.618 378.785L604.159 379.206ZM583.051 459.297L584.746 460.356L584.511 458.876L583.051 459.297ZM577.859 405.38L579.558 406.434L579.323 404.953L577.859 405.38ZM515.629 336.997L517.324 338.056L517.089 336.576L515.629 336.997ZM629.367 459.166L631.067 460.22L630.831 458.74L629.367 459.166ZM519.458 473.182L521.153 474.241L520.917 472.761L519.458 473.182ZM581.846 515.385L583.545 516.439L583.31 514.959L581.846 515.385ZM464.974 562.83L466.669 563.889L466.433 562.409L464.974 562.83ZM412.467 494.707L415.953 495.529L414.687 498.974L412.467 494.707ZM368.781 478.337L370.481 479.391L370.245 477.911L368.781 478.337ZM653.948 551.722L651.734 547.46L650.468 550.905L653.948 551.722ZM714.964 582.003L712.75 577.741L711.483 581.186L714.964 582.003ZM625.288 667.177L623.593 666.118L623.828 667.599L625.288 667.177ZM630.907 686.146L629.212 685.087L629.448 686.567L630.907 686.146ZM579.418 632.338L577.723 631.279L577.959 632.759L579.418 632.338ZM689.333 618.358L687.638 617.298L687.873 618.779L689.333 618.358ZM626.955 576.133L625.26 575.074L625.49 576.56L626.955 576.133ZM739.994 532.52L738.299 531.461L738.535 532.941L739.994 532.52ZM483.039 446.03L480.825 441.758L479.558 445.204L483.039 446.03ZM544.055 476.311L541.841 472.049L540.574 475.495L544.055 476.311ZM506.988 583.888L502.112 583.839L504.419 586.534L506.988 583.888ZM454.82 526.531L453.125 525.472L453.36 526.953L454.82 526.531ZM518.413 512.667L516.719 511.607L516.954 513.088L518.413 512.667ZM456.04 470.447L454.346 469.388L454.581 470.868L456.04 470.447ZM572.928 423.036L571.233 421.977L571.469 423.458L572.928 423.036ZM635.204 414.291L633.509 413.232L633.745 414.712L635.204 414.291ZM681.569 467.383L680.637 465.593L680.104 467.041L681.569 467.383ZM625.414 491.17L623.195 486.904L621.929 490.349L625.414 491.17ZM669.091 507.561L667.396 506.502L667.632 507.982L669.091 507.561ZM740.408 578.175L742.505 582.208L743.704 578.946L740.408 578.175ZM636.315 469.966L638.401 473.98L639.591 470.738L636.315 469.966ZM601.033 564.716L605.908 564.766L603.602 562.07L601.033 564.716ZM674.333 541.956L676.033 543.01L675.797 541.53L674.333 541.956ZM641.534 600.578L643.229 601.638L642.994 600.157L641.534 600.578ZM648.023 568.13L649.718 569.189L649.482 567.709L648.023 568.13ZM585.804 499.747L587.498 500.807L587.263 499.326L585.804 499.747ZM699.536 621.922L701.236 622.976L701.001 621.495L699.536 621.922ZM589.627 635.937L591.327 636.991L591.091 635.511L589.627 635.937ZM749.003 528.184L750.698 529.243L750.462 527.763L749.003 528.184ZM580.193 569.51L585.069 569.569L582.767 566.868L580.193 569.51ZM521.355 608.478L526.23 608.537L523.929 605.837L521.355 608.478ZM532.433 428.364L537.044 428.421L534.865 425.864L532.433 428.364ZM385.156 451.654L389.742 451.708L387.578 449.165L385.156 451.654ZM448.183 526.324L450.834 522.112L447.266 522.867L448.183 526.324ZM467.754 452.052L469.579 451.069L468.172 450.585L467.754 452.052ZM525.688 507.608L527.513 506.625L526.105 506.14L525.688 507.608ZM476.295 487.073L478.12 486.09L476.712 485.606L476.295 487.073ZM550.38 467.293L552.2 466.305L550.793 465.82L550.38 467.293ZM503.644 569.318L505.464 568.33L504.057 567.846L503.644 569.318ZM573.53 534.706L575.355 533.723L573.947 533.238L573.53 534.706ZM551.963 658.315L553.788 657.331L552.381 656.847L551.963 658.315ZM446.186 328.028L450.359 328.077L448.387 325.764L446.186 328.028ZM495.831 380.764L497.651 379.786L496.244 379.302L495.831 380.764ZM496.625 347.469L498.45 346.485L497.043 346.001L496.625 347.469ZM688.729 521.543L693.605 521.602L691.303 518.901L688.729 521.543ZM568.021 352.17L572.607 352.224L570.442 349.681L568.021 352.17ZM665.471 486.239L668.122 482.026L664.559 482.776L665.471 486.239ZM566.719 409.9L568.544 408.917L567.137 408.432L566.719 409.9ZM686.504 469.839L688.329 468.856L686.921 468.372L686.504 469.839ZM734.823 558.826L736.648 557.843L735.241 557.358L734.823 558.826ZM709.061 617.017L710.886 616.034L709.478 615.549L709.061 617.017ZM638.335 632.67L640.379 632.699L639.411 631.564L638.335 632.67ZM660.971 575.755L665.846 575.815L663.545 573.114L660.971 575.755ZM610.281 603.165L612.106 602.182L610.699 601.698L610.281 603.165ZM567.955 570.736L570.174 575.003L571.441 571.558L567.955 570.736ZM506.929 540.476L509.149 544.742L510.415 541.297L506.929 540.476ZM667.791 453.656L669.887 457.69L671.087 454.427L667.791 453.656ZM543.962 432.896L548.837 432.945L546.53 430.249L543.962 432.896ZM617.262 410.135L618.961 411.189L618.726 409.709L617.262 410.135ZM596.144 490.227L597.839 491.286L597.603 489.806L596.144 490.227ZM590.951 436.31L592.651 437.363L592.415 435.883L590.951 436.31ZM528.732 367.927L530.427 368.986L530.191 367.505L528.732 367.927ZM642.465 490.101L644.165 491.155L643.929 489.675L642.465 490.101ZM532.556 504.116L534.25 505.175L534.015 503.695L532.556 504.116ZM594.943 546.32L596.643 547.374L596.408 545.894L594.943 546.32ZM714.905 538.531L719.78 538.58L717.474 535.884L714.905 538.531ZM761.9 541.949L763.599 543.003L763.364 541.523L761.9 541.949ZM699.675 473.562L701.375 474.616L701.14 473.135L699.675 473.562ZM703.499 609.751L705.194 610.81L704.958 609.33L703.499 609.751ZM596.508 631.277L598.728 635.544L599.994 632.098C596.794 631.348 599.499 631.978 596.508 631.277ZM552.832 614.906L554.532 615.96L554.296 614.48L552.832 614.906ZM543.145 544.041L539.051 546.298L542.236 547.359L543.145 544.041ZM450.014 512.518L449.765 517.41L452.551 514.987L450.014 512.518ZM268.85 350.608L268.728 352.935L270.053 351.787L268.85 350.608ZM515.488 494.573L514.362 496.32L515.848 496.023L515.488 494.573ZM285.923 390.862L284.797 392.609L286.283 392.312L285.923 390.862ZM341.074 341.518L338.656 342.849L340.539 343.475L341.074 341.518ZM370.817 346.909L369.691 348.656L371.177 348.358L370.817 346.909ZM631.702 429.058L627.351 431.458L630.736 432.589L631.702 429.058ZM734.928 508.679L730.813 510.948L734.018 512.017L734.928 508.679ZM709.143 500.529L708.016 502.276L709.502 501.978L709.143 500.529ZM654.973 455.146L653.847 456.893L655.338 456.6L654.973 455.146ZM497.375 307.255L496.249 309.002L497.74 308.709L497.375 307.255ZM433.711 496.146L432.553 496.782L433.45 497.082L433.711 496.146ZM637.61 656.142L633.258 658.542L636.644 659.673L637.61 656.142ZM551.954 542.45L547.603 544.849L550.993 545.975L551.954 542.45ZM687.199 556.341L686.95 561.233L689.736 558.811L687.199 556.341ZM458.391 429.925L458.192 433.802L460.403 431.882L458.391 429.925ZM655.828 651.722L654.702 653.469L656.188 653.171L655.828 651.722ZM652.499 622.497L651.373 624.244L652.859 623.946L652.499 622.497ZM723.307 557.257L722.181 559.004L723.672 558.711L723.307 557.257ZM596.691 676.39L595.564 678.137L597.05 677.839L596.691 676.39ZM587.2 566.67L586.074 568.417L587.57 568.119L587.2 566.67ZM542.521 631.007L541.395 632.754L542.881 632.456L542.521 631.007ZM499.945 515.672L498.819 517.419L500.305 517.121L499.945 515.672ZM493.748 453.541L492.621 455.288L494.107 454.99L493.748 453.541ZM384.924 483.116L383.797 484.863L385.283 484.565L384.924 483.116ZM548.629 404.828L546.804 405.831L548.221 406.305L548.629 404.828ZM570.095 460.194L565.744 462.594L569.129 463.725L570.095 460.194ZM588.229 415.692L587.102 417.438L588.588 417.141L588.229 415.692ZM372.367 431.851L373.953 435.366L375.11 432.654L372.367 431.851ZM458.821 386.528L460.407 390.043L461.564 387.331L458.821 386.528ZM445.562 274.994L449.453 275.241L447.726 272.981L445.562 274.994ZM300.423 418.764L304.314 419.012L302.587 416.752L300.423 418.764ZM484.769 323.199L486.079 324.122L485.952 322.921L484.769 323.199ZM482.926 279.755L484.235 280.678L484.109 279.477L482.926 279.755ZM436.184 222.255L437.493 223.179L437.367 221.978L436.184 222.255ZM521.744 325.085L523.053 326.009L522.931 324.812L521.744 325.085ZM433.413 331.606L434.727 332.524L434.601 331.323L433.413 331.606ZM481.405 368.112L482.714 369.035L482.587 367.834L481.405 368.112ZM386.092 401.128L387.401 402.051L387.28 400.855L386.092 401.128ZM336.014 405.48L337.323 406.404L337.196 405.202L336.014 405.48ZM299.203 359.986L300.788 363.5L301.946 360.789L299.203 359.986ZM347.1 344.26L348.685 347.774L349.843 345.063L347.1 344.26ZM502.054 535.192L497.707 537.587L501.093 538.717L502.054 535.192ZM701.069 599.462L696.975 601.72L700.165 602.785L701.069 599.462ZM607.933 567.944L607.684 572.836L610.47 570.414L607.933 567.944ZM426.769 406.035L426.652 408.356L427.977 407.208L426.769 406.035ZM627.643 640.561L626.516 642.308L628.002 642.011L627.643 640.561ZM548.562 622.656L547.436 624.403L548.922 624.105L548.562 622.656ZM602.594 615.235L601.467 616.982L602.953 616.684L602.594 615.235ZM673.407 550L672.28 551.747L673.771 551.454L673.407 550ZM537.3 559.413L536.173 561.16L537.659 560.862L537.3 559.413ZM450.045 508.414L448.918 510.161L450.409 509.859L450.045 508.414ZM443.847 446.284L442.721 448.031L444.207 447.733L443.847 446.284ZM498.998 396.939L496.585 398.265L498.468 398.891L498.998 396.939ZM528.736 402.335L527.615 404.077L529.101 403.779L528.736 402.335ZM381.163 465.568L382.667 468.897L383.761 466.333L381.163 465.568ZM315.423 369.156L316.916 372.466L318.006 369.917L315.423 369.156ZM342.694 428.503L344.003 429.426L343.876 428.225L342.694 428.503ZM273.832 390.859L275.146 391.777L275.024 390.581L273.832 390.859ZM312.933 329.257L314.247 330.175L314.125 328.979L312.933 329.257Z" fill="#999999"/>
<path fill-rule="evenodd" clip-rule="evenodd" d="M318.464 72.95L325.288 75.16L323.134 70.48L318.464 72.95ZM82.1064 -361H83.3386L81.3711 -355.42L78.9377 -359.65L82.1064 -361ZM150.73 -361H152.594L153.236 -360.79L151.279 -359.78L150.73 -361ZM212.188 -361H216.165L214.653 -356.71L212.188 -361ZM320.007 -361H322.916L323.424 -359.89L320.007 -361ZM373.74 -361H377.374L375.707 -356.27L373.129 -360.74L373.74 -361ZM460.962 -83.09L460.941 -83.11L460.682 -83.67L460.506 -83.58L456.198 -88.28L455.629 -83.19L459.626 -83.12L456.271 -81.34L462.722 -79.25L460.962 -83.09ZM332.091 32.93L327.338 27.74L326.769 32.83L332.091 32.93ZM431.221 56.37L426.468 51.18L425.899 56.27L431.221 56.37ZM230.703 222.61L226.209 217.7L225.671 222.52L230.703 222.61ZM400.684 354.62L396.211 349.74L395.672 354.53L400.684 354.62ZM417.035 214.53L409.983 215.9L414.301 218.91L417.035 214.53ZM592.297 -93.18L588.952 -92.53L591.002 -91.1L592.297 -93.18ZM319.53 267.28L316.693 266.34L317.573 268.3L319.53 267.28ZM320.773 151.44L317.936 150.49L318.816 152.45L320.773 151.44ZM347.945 223.71L345.108 222.76L345.988 224.72L347.945 223.71ZM462.732 298.96L459.895 298.01L460.775 299.97L462.732 298.96ZM253.961 165.27L251.124 164.32L252.004 166.28L253.961 165.27ZM407.508 113.69L404.671 112.74L405.551 114.7L407.508 113.69ZM302.04 74.32L299.203 73.38L300.083 75.34L302.04 74.32ZM453.444 -25.07L450.606 -26.01L451.487 -24.05L453.444 -25.07ZM540.137 -55.43L537.3 -56.37L538.18 -54.41L540.137 -55.43ZM464.544 -195.84L461.707 -196.79L462.587 -194.83L464.544 -195.84ZM210.293 412.49L206.224 408.05L205.737 412.41L210.293 412.49ZM216.765 308.15L213.928 307.21L214.808 309.17L216.765 308.15ZM180.926 340.2L178.089 339.26L178.969 341.22L180.926 340.2ZM175.624 -217.89L174.361 -219.27L174.205 -217.92L175.624 -217.89ZM46.7641 -61.27L42.011 -66.46L41.4415 -61.37L46.7641 -61.27ZM145.905 -37.84L141.152 -43.03L140.582 -37.94L145.905 -37.84ZM115.357 260.41L110.883 255.53L110.345 260.32L115.357 260.41ZM131.708 120.33L124.656 121.7L128.974 124.71L131.708 120.33ZM277.644 -206.89L272.052 -205.8L275.469 -203.41L277.644 -206.89ZM34.2032 173.08L31.3659 172.13L32.2461 174.09L34.2032 173.08ZM35.4562 57.24L32.6189 56.29L33.4991 58.25L35.4562 57.24ZM62.6282 129.5L59.7909 128.55L60.6711 130.51L62.6282 129.5ZM177.405 204.76L177.177 204.68L178.472 201.56L174.475 203.02L174.941 203.94L174.568 203.82L175.448 205.78L175.779 205.61L176.339 206.71L177.074 204.94L177.405 204.76ZM122.181 19.48L119.344 18.54L120.224 20.5L122.181 19.48ZM16.7236 -19.89L13.8863 -20.83L14.7665 -18.87L16.7236 -19.89ZM168.117 -119.27L165.279 -120.22L166.16 -118.26L168.117 -119.27ZM254.81 -149.63L251.973 -150.58L252.853 -148.62L254.81 -149.63ZM179.228 -290.04L176.39 -290.99L177.271 -289.03L179.228 -290.04ZM341.142 -90.65L339.143 -92.82L338.905 -90.69L341.142 -90.65ZM268.78 -41.51L264.026 -46.7L263.457 -41.61L268.78 -41.51ZM337.807 -31.98L334.97 -32.93L335.85 -30.97L337.807 -31.98ZM248.483 -325.4L243.958 -321.97L248.173 -321.31L248.483 -325.4ZM339.65 -221.49L335.125 -218.06L339.34 -217.4L339.65 -221.49ZM318.06 -276.46L313.535 -273.03L317.749 -272.37L318.06 -276.46ZM493.394 -135.52L489.117 -132.28L493.104 -131.66L493.394 -135.52ZM610.698 -260.37L606.442 -257.14L610.408 -256.52L610.698 -260.37ZM494.637 -278.93L495.475 -273.45L498.168 -276.63L494.637 -278.93ZM534.432 -201.81L533.52 -199.67L535.188 -200.26L534.432 -201.81ZM437.942 -207.72L437.031 -205.58L438.698 -206.17L438.253 -207.07L441.059 -207.59L439.278 -208.86L438.201 -207.18L437.942 -207.72ZM499.328 -225.49L498.416 -223.35L500.084 -223.94L499.328 -225.49ZM566.968 -310.4L566.057 -308.26L567.724 -308.85L566.968 -310.4ZM446.599 -155.83L445.688 -153.69L447.355 -154.28L446.599 -155.83ZM410.19 -275.93L409.279 -273.79L410.946 -274.38L410.19 -275.93ZM372.86 -196.64L372.176 -195.04L371.306 -195.55L371.865 -192.72L373.191 -194.43L372.652 -194.75L373.616 -195.09L372.86 -196.64ZM296.511 -317.14L295.599 -315L297.267 -315.59L296.511 -317.14ZM154.665 -332.98L153.754 -330.84L155.421 -331.43L154.665 -332.98ZM200.632 -213.03L200.093 -211.27L201.367 -211.87L200.632 -213.03ZM407.446 -192.56L405.427 -185.93L410.211 -188.2L407.446 -192.56ZM374.931 -285.44L372.911 -278.81L377.695 -281.08L374.931 -285.44ZM521.664 -358.71L526.645 -353.73L526.986 -358.84L521.664 -358.71ZM155.628 -301.59L159.584 -297.64L159.853 -301.69L155.628 -301.59ZM620.318 -307.97L621.012 -305.17L622.264 -306.93L620.318 -307.97ZM517.75 -246.9L518.433 -244.1L519.686 -245.86L517.75 -246.9ZM566.761 -307.65L567.444 -304.85L568.697 -306.61L566.761 -307.65ZM565.725 -200.17L566.409 -197.36L567.662 -199.13L565.725 -200.17ZM438.066 -296.94L438.76 -294.14L440.013 -295.91L438.066 -296.94ZM459.957 -190.38L460.651 -187.58L461.904 -189.34L459.957 -190.38ZM298.209 -299.04L298.892 -296.24L300.145 -298.01L298.209 -299.04ZM218.225 -313.78L218.909 -310.98L220.162 -312.74L218.225 -313.78ZM135.229 -177.28L135.912 -174.48L137.165 -176.24L135.229 -177.28ZM67.0188 -214.44L72.4553 -212.61L70.7674 -216.38L67.0188 -214.44ZM109.548 -344.02L114.984 -342.19L113.307 -345.96L109.548 -344.02ZM30.7446 -323.03L36.1811 -321.2L34.4932 -324.97L30.7446 -323.03ZM48.5348 -257.79L50.9062 -258.2L49.4875 -259.24L48.5348 -257.79ZM0.414208 -203.93L2.78555 -204.34L1.36689 -205.38L0.414208 -203.93ZM110.625 -134.36L112.996 -134.77L111.577 -135.81L110.625 -134.36ZM451.052 211.15L453.351 204.6L448.473 206.67L451.052 211.15ZM281.931 162.04L284.229 155.49L279.352 157.56L281.931 162.04ZM310.356 256.16L312.654 249.61L307.777 251.68L310.356 256.16ZM60.1016 172.6L62.2762 166.41L57.6577 168.37L60.1016 172.6ZM25.9812 379.9L28.1454 373.74L23.5581 375.69L25.9812 379.9ZM160.547 323.45L155.784 318.27L155.224 323.36L160.547 323.45ZM525.827 315.27L523.569 312.81L523.3 315.23L525.827 315.27ZM64.2022 268.77L63.643 265.94L62.3176 267.65L64.2022 268.77ZM169.349 211.89L168.779 209.06L167.454 210.77L169.349 211.89ZM117.728 270.61L117.159 267.78L115.833 269.49L117.728 270.61ZM107.218 403.65L106.659 400.82L105.333 402.53L107.218 403.65ZM123.465 163.26L122.895 160.43L121.57 162.14L123.465 163.26ZM246.775 265.11L246.205 262.28L244.88 263.99L246.775 265.11ZM229.575 157.76L229.016 154.93L227.69 156.64L229.575 157.76ZM394.947 233.91L394.378 231.08L393.052 232.79L394.947 233.91ZM465.684 290.8L465.114 287.97L463.789 289.68L465.684 290.8ZM554.583 157.76L554.024 154.93L552.698 156.64L554.583 157.76ZM455.981 392.93L457.254 389.3L454.552 390.45L455.981 392.93ZM417.822 415.67L417.263 412.84L415.937 414.55L417.822 415.67ZM430.02 -93.42L430.631 -95.16L429.337 -94.61L430.02 -93.42ZM224.273 -122.22L226.572 -128.77L221.694 -126.7L224.273 -122.22ZM252.698 -28.1L254.997 -34.65L250.119 -32.58L252.698 -28.1ZM2.43347 -111.66L4.60806 -117.85L0 -115.9L2.43347 -111.66ZM102.889 39.18L98.1259 34L97.5667 39.09L102.889 39.18ZM471.099 -3.13L467.33 -7.23001L466.885 -3.20001L471.099 -3.13ZM6.53413 -15.49L5.97495 -18.32L4.64948 -16.61L6.53413 -15.49ZM111.691 -72.37L111.132 -75.2L109.807 -73.49L111.691 -72.37ZM60.0705 -13.66L59.5113 -16.49L58.1859 -14.78L60.0705 -13.66ZM49.5496 119.38L48.9904 116.55L47.665 118.26L49.5496 119.38ZM65.8073 -121L65.2377 -123.83L63.9123 -122.12L65.8073 -121ZM189.117 -19.16L188.558 -21.99L187.232 -20.28L189.117 -19.16ZM171.907 -126.51L171.337 -129.34L170.012 -127.63L171.907 -126.51ZM337.279 -50.35L336.72 -53.18L335.395 -51.47L337.279 -50.35ZM408.015 6.53L407.456 3.70001L406.131 5.41L408.015 6.53ZM496.925 -126.51L496.356 -129.34L495.03 -127.63L496.925 -126.51ZM397.971 107.78L398.934 105.03L396.884 105.9L397.971 107.78ZM317.449 72.19L314.87 67.71L319.748 65.64L317.449 72.19ZM343.358 134.34L342.798 131.51L341.473 133.22L343.358 134.34ZM563.447 -86.62L558.093 -88.67L559.605 -84.84L563.447 -86.62ZM515.275 41.12L509.921 39.07L511.443 42.9L515.275 41.12ZM594.937 23.33L589.573 21.28L591.095 25.11L594.937 23.33ZM514.581 211.89L509.517 209.95L510.956 213.58L514.581 211.89ZM594.906 212.86L592.524 213.17L593.891 214.26L594.906 212.86ZM551.994 129.7L549.612 130.01L550.979 131.1L551.994 129.7ZM598.727 171.84L596.345 172.15L597.712 173.24L598.727 171.84ZM509.507 162.84L507.125 163.15L508.502 164.24L509.507 162.84ZM599.669 72.52L597.288 72.83L598.655 73.92L599.669 72.52ZM509.465 81.14L507.084 81.45L508.451 82.54L509.465 81.14ZM580.015 -42.57L577.634 -42.26L579 -41.17L580.015 -42.57ZM523.383 -168.4L521.001 -168.09L522.368 -167L523.383 -168.4ZM138.946 -238.29L136.637 -231.74L141.514 -233.81L138.946 -238.29ZM110.552 -332.42L108.243 -325.87L113.12 -327.94L110.552 -332.42ZM360.785 -248.79L358.611 -242.6L363.229 -244.56L360.785 -248.79ZM356.716 -344.96L357.275 -342.13L358.6 -343.84L356.716 -344.96ZM288.775 -322.16L289.335 -319.33L290.66 -321.04L288.775 -322.16ZM303.179 -346.81L303.739 -343.98L305.064 -345.69L303.179 -346.81ZM297.412 -239.47L297.971 -236.64L299.296 -238.35L297.412 -239.47ZM174.133 -341.35L174.692 -338.52L176.018 -340.23L174.133 -341.35ZM191.302 -233.99L191.861 -231.16L193.187 -232.87L191.302 -233.99ZM33.7476 -309.89L34.3068 -307.06L35.6322 -308.77L33.7476 -309.89ZM542.343 -326.7L540.365 -321.1L544.538 -322.87L542.343 -326.7ZM535.447 21.22L538.843 24.91L539.247 21.28L535.447 21.22ZM444.942 -279.95L445.501 -277.12L446.827 -278.83L444.942 -279.95ZM491.779 -266.17L492.338 -263.34L493.663 -265.05L491.779 -266.17ZM196.511 45.99L194.201 52.53L199.079 50.46L196.511 45.99ZM168.117 -48.14L165.807 -41.6L170.685 -43.67L168.117 -48.14ZM418.35 35.5L416.165 41.69L420.783 39.73L418.35 35.5ZM452.543 -171.79L450.379 -165.63L454.966 -167.58L452.543 -171.79ZM317.946 -115.38L322.709 -110.2L323.269 -115.29L317.946 -115.38ZM414.28 -60.68L414.84 -57.85L416.165 -59.56L414.28 -60.68ZM309.113 -3.82001L309.672 -0.98999L310.998 -2.70001L309.113 -3.82001ZM360.744 -62.53L361.314 -59.7L362.639 -61.41L360.744 -62.53ZM354.976 44.82L355.546 47.65L356.871 45.94L354.976 44.82ZM231.698 -57.06L232.257 -54.23L233.582 -55.94L231.698 -57.06ZM248.866 50.29L249.436 53.12L250.761 51.41L248.866 50.29ZM83.525 -25.91L84.0842 -23.08L85.4097 -24.79L83.525 -25.91ZM12.799 -82.82L13.3582 -79.99L14.6837 -81.7L12.799 -82.82ZM22.885 -184.06L21.922 -181.31L23.9723 -182.18L22.885 -184.06ZM103.397 -148.45L101.087 -141.9L105.965 -143.97L103.397 -148.45ZM77.5087 -210.61L78.0678 -207.78L79.3933 -209.49L77.5087 -210.61ZM495.382 -307.72L497.681 -314.27L492.804 -312.2L495.382 -307.72ZM354.686 -262.71L356.985 -269.26L352.108 -267.19L354.686 -262.71ZM70.3118 -138.98L72.476 -145.14L67.8887 -143.19L70.3118 -138.98ZM204.878 -195.43L200.114 -200.61L199.555 -195.52L204.878 -195.43ZM570.157 -203.6L567.9 -206.06L567.63 -203.64L570.157 -203.6ZM108.533 -250.1L107.974 -252.93L106.648 -251.22L108.533 -250.1ZM202.63 -273.48L202.061 -276.31L200.736 -274.6L202.63 -273.48ZM162.059 -248.26L161.5 -251.09L160.174 -249.38L162.059 -248.26ZM151.548 -115.23L150.979 -118.06L149.653 -116.35L151.548 -115.23ZM167.796 -355.61L167.236 -358.44L165.911 -356.73L167.796 -355.61ZM291.105 -253.77L290.546 -256.6L289.221 -254.89L291.105 -253.77ZM439.278 -284.96L438.719 -287.79L437.393 -286.08L439.278 -284.96ZM510.014 -228.08L509.455 -230.91L508.13 -229.2L510.014 -228.08ZM500.311 -125.95L501.585 -129.58L498.882 -128.43L500.311 -125.95ZM462.152 -103.2L461.583 -106.03L460.257 -104.32L462.152 -103.2ZM20.2858 -315.08L19.7163 -317.91L18.3908 -316.2L20.2858 -315.08ZM558.911 -306.98L553.848 -308.92L554.997 -306L551.539 -307.32L553.061 -303.49L553.61 -303.74L552.698 -302.31L555.65 -302.85L554.096 -303.96L556.913 -305.27L556.012 -305.61L558.911 -306.98ZM553.837 -356.03L551.456 -355.72L552.833 -354.63L553.837 -356.03ZM359.377 -294.25L354.624 -299.44L354.055 -294.35L359.377 -294.25ZM230.507 -178.23L225.754 -183.42L225.184 -178.33L230.507 -178.23ZM329.647 -154.79L324.894 -159.98L324.325 -154.89L329.647 -154.79ZM129.119 11.45L124.625 6.54001L124.086 11.36L129.119 11.45ZM299.1 143.46L294.626 138.58L294.088 143.37L299.1 143.46ZM315.45 3.37L308.398 4.73999L312.717 7.75L315.45 3.37ZM490.712 -304.34L487.367 -303.69L489.418 -302.26L490.712 -304.34ZM217.946 56.12L215.109 55.18L215.989 57.14L217.946 56.12ZM219.199 -59.72L216.361 -60.67L217.242 -58.71L219.199 -59.72ZM246.371 12.55L243.534 11.6L244.414 13.56L246.371 12.55ZM361.148 87.81L358.311 86.86L359.191 88.82L361.148 87.81ZM152.377 -45.89L149.539 -46.84L150.42 -44.88L152.377 -45.89ZM305.924 -97.47L303.086 -98.42L303.966 -96.46L305.924 -97.47ZM200.466 -136.84L197.629 -137.78L198.509 -135.82L200.466 -136.84ZM351.859 -236.23L349.022 -237.17L349.902 -235.21L351.859 -236.23ZM438.553 -266.58L435.716 -267.53L436.596 -265.57L438.553 -266.58ZM525.858 -207.45L523.217 -210.33L522.896 -207.51L525.858 -207.45ZM527.297 -164.36L524.46 -165.31L525.34 -163.35L527.297 -164.36ZM108.709 201.33L104.639 196.89L104.153 201.25L108.709 201.33ZM115.181 96.99L112.344 96.05L113.224 98.01L115.181 96.99ZM79.3415 129.04L76.5042 128.09L77.3844 130.05L79.3415 129.04ZM72.8281 -245.09L68.0751 -250.28L67.5055 -245.19L72.8281 -245.09ZM13.7828 49.26L9.30932 44.38L8.77085 49.17L13.7828 49.26ZM58.6311 -185.75L51.5792 -184.38L55.8974 -181.37L58.6311 -185.75ZM75.8208 -6.39999L72.9834 -7.35001L73.8636 -5.39001L75.8208 -6.39999ZM20.6068 -191.67L17.7695 -192.62L18.6497 -190.66L20.6068 -191.67ZM66.5425 -330.43L63.7052 -331.38L64.5854 -329.42L66.5425 -330.43ZM239.567 -301.81L237.569 -303.98L237.331 -301.85L239.567 -301.81ZM157.306 -269.42L152.553 -274.61L151.983 -269.52L157.306 -269.42ZM236.223 -243.14L233.385 -244.09L234.266 -242.13L236.223 -243.14ZM391.81 -346.68L387.533 -343.44L391.52 -342.82L391.81 -346.68ZM413.007 -117.45L415.306 -124L410.428 -121.93L413.007 -117.45ZM243.896 -166.56L246.195 -173.11L241.318 -171.04L243.896 -166.56ZM272.321 -72.44L274.62 -78.99L269.743 -76.92L272.321 -72.44ZM22.0566 -156L24.2415 -162.19L19.6231 -160.23L22.0566 -156ZM122.512 -5.16L117.749 -10.34L117.19 -5.25L122.512 -5.16ZM487.782 -13.33L485.524 -15.79L485.255 -13.37L487.782 -13.33ZM26.1572 -59.83L25.598 -62.66L24.2726 -60.95L26.1572 -59.83ZM131.304 -116.71L130.745 -119.54L129.419 -117.83L131.304 -116.71ZM79.6936 -57.99L79.1241 -60.82L77.7986 -59.11L79.6936 -57.99ZM69.1727 75.04L68.6135 72.21L67.2881 73.92L69.1727 75.04ZM85.42 -165.34L84.8608 -168.17L83.5354 -166.46L85.42 -165.34ZM208.74 -63.5L208.181 -66.33L206.855 -64.62L208.74 -63.5ZM191.53 -170.84L190.96 -173.67L189.635 -171.96L191.53 -170.84ZM356.902 -94.69L356.343 -97.52L355.018 -95.81L356.902 -94.69ZM427.639 -37.81L427.079 -40.64L425.754 -38.93L427.639 -37.81ZM516.538 -170.84L515.968 -173.67L514.643 -171.96L516.538 -170.84ZM417.936 64.32L419.209 60.69L416.507 61.84L417.936 64.32ZM379.777 87.07L379.218 84.24L377.892 85.95L379.777 87.07ZM64.8442 -289.42L60.0809 -294.6L59.5217 -289.51L64.8442 -289.42ZM433.054 -331.73L429.285 -335.83L428.84 -331.8L433.054 -331.73ZM22.0255 -342.26L21.4663 -345.09L20.1409 -343.38L22.0255 -342.26ZM11.515 -209.22L10.9558 -212.05L9.63033 -210.34L11.515 -209.22ZM151.072 -347.77L150.513 -350.6L149.187 -348.89L151.072 -347.77ZM369.981 -322.07L369.411 -324.9L368.086 -323.19L369.981 -322.07ZM359.926 -220.83L360.889 -223.58L358.839 -222.71L359.926 -220.83ZM279.404 -256.41L281.703 -262.96L276.825 -260.89C279.197 -256.78 277.198 -260.25 279.404 -256.41ZM305.313 -194.27L304.753 -197.1L303.428 -195.39L305.313 -194.27ZM477.24 -287.48L471.886 -289.53L473.398 -285.7L477.24 -287.48ZM476.536 -116.71L471.472 -118.65L472.911 -115.02L476.536 -116.71ZM606.556 -187.38L602.03 -183.94L606.245 -183.29L606.556 -187.38ZM556.861 -115.74L554.479 -115.43L555.846 -114.34L556.861 -115.74ZM513.959 -198.91L511.578 -198.6L512.955 -197.51L513.959 -198.91ZM560.693 -156.76L558.311 -156.45L559.678 -155.36L560.693 -156.76ZM471.462 -165.76L469.08 -165.45L470.457 -164.36L471.462 -165.76ZM561.624 -256.08L559.243 -255.77L560.61 -254.68L561.624 -256.08ZM471.42 -247.46L469.039 -247.15L470.406 -246.06L471.42 -247.46ZM416.113 293.91L422.937 296.12L420.783 291.44L416.113 293.91ZM467.268 131.59L474.092 133.8L471.938 129.12L467.268 131.59ZM369.215 158.87L376.039 161.08L373.885 156.4L369.215 158.87ZM240.292 -114.08L246.713 -112L244.683 -116.4L240.292 -114.08ZM299.11 15.08L304.505 10.51L299.203 9.97L299.11 15.08ZM307.632 365.68L310.19 363.51L307.674 363.25L307.632 365.68ZM356.074 -77.4L359.015 -77.94L357.234 -79.21L356.074 -77.4ZM415.337 23.53L418.288 22.99L416.507 21.72L415.337 23.53ZM354.158 -26.01L357.099 -26.55L355.318 -27.82L354.158 -26.01ZM215.554 -36.11L218.505 -36.65L216.724 -37.92L215.554 -36.11ZM466.005 -20.51L468.956 -21.05L467.175 -22.32L466.005 -20.51ZM359.895 97.85L362.846 97.31L361.065 96.04L359.895 97.85ZM471.741 81.33L474.693 80.79L472.911 79.52L471.741 81.33ZM392.4 240.06L395.351 239.52L393.57 238.25L392.4 240.06ZM333.127 307.95L336.078 307.41L334.297 306.14L333.127 307.95ZM471.741 393.28L474.693 392.74L472.911 391.47L471.741 393.28ZM226.717 298.64L230.507 299.87L229.305 297.27L226.717 298.64ZM203.024 262.01L205.975 261.47L204.194 260.2L203.024 262.01ZM395.972 -252.22L401.813 -250.33L399.969 -254.34L395.972 -252.22ZM423.776 -162.1L426.727 -162.64L424.946 -163.91L423.776 -162.1ZM536.461 -169.42L542.882 -167.34L540.852 -171.74L536.461 -169.42ZM595.279 -40.26L600.674 -44.83L595.372 -45.37L595.279 -40.26ZM511.723 -91.45L514.674 -91.99L512.893 -93.26L511.723 -91.45ZM523.807 242.96L526.665 243.89L525.764 241.93L523.807 242.96ZM560.889 165.68L567.713 167.89L565.559 163.21L560.889 165.68ZM496.138 190.54L499.089 190L497.308 188.73L496.138 190.54ZM593.26 355.55L595.393 350.41L591.396 351.87L593.26 355.55ZM611.795 432.01L613.929 426.87L609.931 428.33L611.795 432.01ZM415.337 354.88L417.356 350.01L413.576 351.39L415.337 354.88ZM414.322 431.98L414.001 429.69L412.862 431.01L414.322 431.98ZM500.974 390.8L500.653 388.51L499.514 389.83L500.974 390.8ZM457.068 435.65L456.747 433.36L455.608 434.68L457.068 435.65ZM466.44 350.02L466.118 347.73L464.979 349.05L466.44 350.02ZM560.537 436.55L560.206 434.26L559.067 435.57L560.537 436.55ZM551.559 349.97L551.238 347.68L550.099 348.99L551.559 349.97ZM31.8112 -93.72L38.6249 -91.51L36.471 -96.19L31.8112 -93.72ZM13.6585 -281.01L20.1098 -278.92L18.0698 -283.35L13.6585 -281.01ZM30.5375 -245.82L33.4887 -246.36L31.7076 -247.63L30.5375 -245.82ZM36.2743 -143.98L39.2255 -144.52L37.4444 -145.79L36.2743 -143.98ZM36.2743 167.97L39.2255 167.43L37.4444 166.15L36.2743 167.97ZM297.981 48.41L299.793 49L299.224 47.75L297.981 48.41ZM264.99 -324.23L271.803 -322.02L269.649 -326.7L264.99 -324.23ZM229.927 -121.78L236.751 -119.57L234.597 -124.25L229.927 -121.78ZM110.956 -277.85L116.351 -282.42L111.049 -282.96L110.956 -277.85ZM203.904 87.84L208.181 84.22L203.977 83.79L203.904 87.84ZM242.343 -339.04L245.294 -339.58L243.513 -340.85L242.343 -339.04ZM214.87 -306.67L217.822 -307.21L216.04 -308.48L214.87 -306.67ZM76.266 -316.76L79.2173 -317.3L77.4362 -318.57L76.266 -316.76ZM326.717 -301.16L329.668 -301.7L327.887 -302.98L326.717 -301.16ZM220.607 -182.81L223.558 -183.35L221.777 -184.62L220.607 -182.81ZM332.443 -199.32L335.395 -199.86L333.613 -201.13L332.443 -199.32ZM253.102 -40.59L256.053 -41.13L254.272 -42.4L253.102 -40.59ZM193.839 27.3L196.79 26.76L195.009 25.49L193.839 27.3ZM332.443 112.63L335.395 112.09L333.613 110.82L332.443 112.63ZM88.3505 17.65L91.2086 18.58L90.3077 16.62L88.3505 17.65ZM125.433 -59.63L132.257 -57.42L130.103 -62.1L125.433 -59.63ZM60.6815 -34.76L63.6327 -35.3L61.8516 -36.57L60.6815 -34.76ZM290.898 176.48L293.031 171.34L289.034 172.8L290.898 176.48ZM157.803 130.25L159.936 125.11L155.939 126.57L157.803 130.25ZM53.5053 254.37L49.9224 250.03L49.2493 254.08L53.5053 254.37ZM348.183 265.13L344.6 260.79L343.927 264.84L348.183 265.13ZM65.5173 165.49L65.1963 163.2L64.0573 164.52L65.5173 165.49ZM21.6009 210.34L21.2799 208.05L20.1409 209.37L21.6009 210.34ZM7.25899 316.33L6.93798 314.04L5.79891 315.36L7.25899 316.33ZM30.9827 124.71L30.6617 122.42L29.5227 123.74L30.9827 124.71ZM125.08 211.24L124.759 208.95L123.62 210.27L125.08 211.24ZM116.102 124.67L115.781 122.38L114.642 123.7L116.102 124.67ZM244.994 192.38L244.673 190.09L243.534 191.41L244.994 192.38ZM299.048 240.79L298.716 238.5L297.577 239.82L299.048 240.79ZM376.09 138.02L375.769 135.73L374.63 137.05L376.09 138.02ZM287.512 324.47L289.645 319.33L285.648 320.79L287.512 324.47ZM223.662 289.59L225.795 284.45L221.798 285.91L223.662 289.59ZM369.629 -89.37L376.442 -87.16L374.289 -91.84L369.629 -89.37ZM271.575 -62.09L278.389 -59.88L276.235 -64.56L271.575 -62.09ZM400.508 -283.86L406.959 -281.77L404.919 -286.2L400.508 -283.86ZM142.653 -335.04L149.063 -332.96L147.033 -337.36L142.653 -335.04ZM201.471 -205.88L206.866 -210.45L201.564 -210.99L201.471 -205.88ZM209.993 144.72L212.551 142.55L210.034 142.29L209.993 144.72ZM258.424 -298.35L261.376 -298.89L259.594 -300.16L258.424 -298.35ZM317.697 -197.43L320.649 -197.97L318.857 -199.24L317.697 -197.43ZM256.519 -246.97L259.47 -247.51L257.689 -248.79L256.519 -246.97ZM117.915 -257.07L120.866 -257.61L119.085 -258.88L117.915 -257.07ZM368.355 -241.47L371.306 -242.01L369.525 -243.28L368.355 -241.47ZM262.256 -123.11L265.207 -123.65L263.426 -124.92L262.256 -123.11ZM374.092 -139.63L377.043 -140.17L375.262 -141.44L374.092 -139.63ZM294.75 19.1L297.702 18.56L295.92 17.28L294.75 19.1ZM235.488 86.99L238.439 86.45L236.658 85.17L235.488 86.99ZM374.092 172.32L377.043 171.78L375.262 170.51L374.092 172.32ZM129.078 77.68L132.857 78.91L131.656 76.31L129.078 77.68ZM105.385 41.05L108.336 40.51L106.555 39.24L105.385 41.05ZM567.744 -117.43L574.568 -115.22L572.415 -119.9L567.744 -117.43ZM497.64 -261.22L503.035 -265.79L497.733 -266.33L497.64 -261.22ZM541.722 92.19L545.998 88.57L541.794 88.14L541.722 92.19ZM554.604 -353.7L557.555 -354.24L555.774 -355.51L554.604 -353.7ZM613.866 -252.77L616.818 -253.31L615.037 -254.58L613.866 -252.77ZM404.774 -351.49L407.726 -352.03L405.944 -353.3L404.774 -351.49ZM558.425 -178.46L561.376 -179L559.595 -180.27L558.425 -178.46ZM590.919 -36.25L593.871 -36.79L592.089 -38.06L590.919 -36.25ZM531.656 31.65L534.608 31.11L532.827 29.84L531.656 31.65ZM426.168 22L429.026 22.93L428.125 20.97L426.168 22ZM463.25 -55.28L470.074 -53.07L467.91 -57.75L463.25 -55.28ZM398.499 -30.42L401.45 -30.96L399.669 -32.23L398.499 -30.42ZM495.62 134.59L497.754 129.45L493.757 130.91L495.62 134.59ZM514.156 211.05L512.292 207.37L516.289 205.91L514.156 211.05ZM317.687 133.92L319.706 129.06L315.927 130.44L317.687 133.92ZM281.144 298.34L283.153 293.5L279.394 294.87L281.144 298.34ZM391.313 258.72L387.73 254.38L387.057 258.43L391.313 258.72ZM316.683 211.02L316.362 208.73L315.223 210.04L316.683 211.02ZM403.335 169.84L403.014 167.55L401.875 168.87L403.335 169.84ZM359.419 214.69L359.087 212.4L357.948 213.72L359.419 214.69ZM345.077 320.68L344.756 318.39L343.616 319.71L345.077 320.68ZM368.8 129.06L368.469 126.77L367.33 128.09L368.8 129.06ZM462.898 215.59L462.577 213.3L461.438 214.62L462.898 215.59ZM453.92 129.01L453.599 126.72L452.46 128.04L453.92 129.01ZM582.811 196.73L582.49 194.44L581.351 195.76L582.811 196.73ZM561.479 293.94L563.613 288.8L559.616 290.25L561.479 293.94ZM579.435 344.72L579.114 342.43L577.975 343.75L579.435 344.72ZM241.618 340.37L241.297 338.08L240.158 339.39L241.618 340.37Z" fill="#999999"/>
<path opacity="0.13" fill-rule="evenodd" clip-rule="evenodd" d="M728.204 369.74L730.71 363.26L725.771 365.19L728.204 369.74ZM253.543 348.83V348.84V348.83ZM252.01 398.32L252 398.76L252.197 398.84L252.01 398.32ZM569.936 228.4L569.915 228.42L569.314 228.65L569.408 228.82L564.385 232.81L569.666 233.51L569.863 229.68L571.613 232.96L573.985 226.83L569.936 228.4ZM686.939 355.48L681.399 359.89L686.68 360.59L686.939 355.48ZM714.287 261.07L708.747 265.48L714.039 266.18L714.287 261.07ZM881.461 458.38L876.222 462.55L881.223 463.21L881.461 458.38ZM878.583 279.38L879.805 286.19L883.066 282.14L878.583 279.38ZM563.329 102.1L563.909 105.33L565.462 103.41L563.329 102.1ZM930.628 374.49L929.561 377.18L931.632 376.39L930.628 374.49ZM810.021 369.85L808.954 372.54L811.025 371.75L810.021 369.85ZM886.08 345.93L885.013 348.62L887.074 347.83L886.08 345.93ZM822.437 434.37L821.37 437.06L823.441 436.27L822.437 434.37ZM773.281 285.53L772.214 288.22L774.285 287.43L773.281 285.53ZM729.147 385.54L728.08 388.23L730.151 387.44L729.147 385.54ZM630.141 237.33L629.074 240.02L631.145 239.23L630.141 237.33ZM601.094 153.26L600.028 155.95L602.089 155.16L601.094 153.26ZM452.622 221.61L451.555 224.3L453.626 223.51L452.622 221.61ZM421.08 498.14L419.609 499.31L421.018 499.49L421.08 498.14ZM580.363 626.41L574.823 630.82L580.104 631.52L580.363 626.41ZM607.711 532L602.171 536.41L607.453 537.11L607.711 532ZM917.404 570.16L912.196 574.31L917.166 574.97L917.404 570.16ZM772.007 550.32L773.219 557.13L776.48 553.08L772.007 550.32ZM435.567 400.6L436.53 405.99L439.118 402.78L435.567 400.6ZM824.042 645.43L822.975 648.12L825.046 647.33L824.042 645.43ZM703.435 640.79L702.368 643.48L704.439 642.69L703.435 640.79ZM779.504 616.87L778.438 619.56L780.509 618.77L779.504 616.87ZM861.289 508.98L861.207 509.2L857.997 507.86L859.395 511.74L860.368 511.32L860.223 511.67L862.294 510.88L862.128 510.56L863.288 510.06L861.466 509.3L861.289 508.98ZM666.695 556.46L665.628 559.15L667.699 558.36L666.695 556.46ZM622.561 656.47L621.494 659.16L623.555 658.37L622.561 656.47ZM523.555 508.27L522.488 510.96L524.559 510.17L523.555 508.27ZM494.519 424.19L493.452 426.88L495.523 426.09L494.519 424.19ZM346.046 492.54L344.979 495.23L347.05 494.44L346.046 492.54ZM558.504 343.12L556.184 344.97L558.4 345.26L558.504 343.12ZM607.525 414.01L601.985 418.42L607.266 419.12L607.525 414.01ZM619.506 348.07L618.439 350.76L620.5 349.97L619.506 348.07ZM311.284 425.05L314.721 429.49L315.529 425.46L311.284 425.05ZM422.208 340.67L425.646 345.12L426.454 341.09L422.208 340.67ZM364.312 359.75L367.75 364.19L368.558 360.16L364.312 359.75ZM516.296 195.72L519.547 199.93L520.314 196.12L516.296 195.72ZM389.755 79.48L392.986 83.66L393.742 79.87L389.755 79.48ZM366.984 190.27L372.711 189.63L369.48 186.95L366.984 190.27ZM448.49 154.38L450.685 155.32L450.116 153.7L448.49 154.38ZM439.46 246.78L441.655 247.72L441.086 246.1L440.133 246.5L439.678 243.79L438.3 245.46L440.019 246.54L439.46 246.78ZM422.778 187.36L424.973 188.3L424.404 186.68L422.778 187.36ZM336.364 119.95L338.559 120.89L337.99 119.27L336.364 119.95ZM493.752 240.02L495.948 240.95L495.378 239.33L493.752 240.02ZM367.605 271.38L369.801 272.32L369.231 270.7L367.605 271.38ZM449.059 309.55L450.706 310.25L450.147 311.07L453.108 310.61L451.369 309.28L451.017 309.79L450.696 308.86L449.059 309.55ZM321.307 379.22L323.503 380.16L322.933 378.54L321.307 379.22ZM300.597 514.83L302.792 515.77L302.223 514.15L300.597 514.83ZM426.879 474.3L428.701 474.87L428.111 473.63L426.879 474.3ZM454.351 276.48L461.196 278.61L458.98 273.95L454.351 276.48ZM356.65 304.92L363.494 307.05L361.278 302.39L356.65 304.92ZM284.702 161.97L290.045 157.33L284.733 156.85L284.702 161.97ZM333.319 514.84L337.544 511.17L333.34 510.79L333.319 514.84ZM340.475 68.83L343.416 68.25L341.614 67L340.475 68.83ZM401.032 169.05L403.973 168.47L402.171 167.22L401.032 169.05ZM339.222 120.23L342.163 119.65L340.361 118.4L339.222 120.23ZM451.12 124.41L454.061 123.83L452.259 122.58L451.12 124.41ZM346.543 244.01L349.484 243.43L347.682 242.18L346.543 244.01ZM458.172 226.18L461.113 225.6L459.311 224.35L458.172 226.18ZM340.206 378.13L343.146 377.55L341.345 376.3L340.206 378.13ZM322.477 454.42L325.418 453.84L323.617 452.59L322.477 454.42ZM462.169 538.1L465.11 537.52L463.308 536.27L462.169 538.1ZM252.963 368.3L259.808 370.43L257.592 365.77L252.963 368.3ZM421.442 602.44L423.513 597.27L419.537 598.77L421.442 602.44ZM287.767 557.78L289.828 552.61L285.851 554.11L287.767 557.78ZM307.286 634.01L309.357 628.84L305.381 630.34L307.286 634.01ZM256.09 639.16L255.738 636.88L254.62 638.21L256.09 639.16ZM375.755 618.88L375.403 616.6L374.285 617.93L375.755 618.88ZM430.42 666.65L430.068 664.37L428.95 665.7L430.42 666.65ZM506.137 562.98L505.785 560.7L504.667 562.03L506.137 562.98ZM876.066 246.64L869.315 244.24L871.324 248.98L876.066 246.64ZM819.91 407.43L813.159 405.03L815.167 409.77L819.91 407.43ZM918.771 382.96L912.02 380.56L914.029 385.3L918.771 382.96ZM824.311 620.57L817.922 618.3L819.827 622.78L824.311 620.57ZM924.591 619.5L921.629 619.96L923.369 621.29L924.591 619.5ZM868.476 516.93L865.514 517.39L867.254 518.71L868.476 516.93ZM928.091 568.19L925.129 568.65L926.879 569.97L928.091 568.19ZM816.472 559.5L813.511 559.96L815.261 561.28L816.472 559.5ZM926.196 444.22L923.234 444.68L924.974 446.01L926.196 444.22ZM813.894 457.54L810.932 458L812.672 459.32L813.894 457.54ZM898.113 301.15L895.151 301.61L896.891 302.93L898.113 301.15ZM823.545 145.73L820.583 146.19L822.323 147.51L823.545 145.73ZM558.255 257.78L556.464 257.14L556.992 258.4L558.255 257.78ZM522.157 454.31L515.405 451.91L517.414 456.65L522.157 454.31ZM621.018 429.83L614.266 427.43L616.275 432.17L621.018 429.83ZM526.558 667.45L520.179 665.18L522.084 669.67L526.558 667.45ZM686.639 575.56L681.109 579.98L686.401 580.67L686.639 575.56ZM653.512 221.05L649.132 224.55L653.316 225.1L653.512 221.05ZM626.837 666.37L623.876 666.82L625.626 668.15L626.837 666.37ZM570.723 563.8L567.761 564.26L569.501 565.59L570.723 563.8ZM630.338 615.07L627.376 615.53L629.116 616.85L630.338 615.07ZM768.579 629.11L765.618 629.57L767.368 630.9L768.579 629.11ZM518.719 606.38L515.757 606.84L517.507 608.17L518.719 606.38ZM628.443 491.1L625.481 491.56L627.221 492.88L628.443 491.1ZM516.14 504.42L513.179 504.88L514.918 506.2L516.14 504.42ZM600.359 348.02L597.398 348.48L599.148 349.81L600.359 348.02ZM661.693 281.85L658.731 282.31L660.471 283.64L661.693 281.85ZM525.791 192.61L522.83 193.07L524.57 194.4L525.791 192.61ZM766.84 294.5L764.013 293.49L764.862 295.48L766.84 294.5ZM727.386 370.69L722.644 373.03L720.635 368.29L727.386 370.69ZM792.873 347.68L789.911 348.14L791.661 349.46L792.873 347.68ZM569.304 129.97L567.015 135.05L571.054 133.71L569.304 129.97ZM700.908 179.98L698.62 185.06L702.658 183.72L700.908 179.98ZM684.744 103.03L682.445 108.11L686.483 106.77L684.744 103.03ZM878.728 185.72L876.563 190.52L880.384 189.25L878.728 185.72ZM882.124 108.68L882.383 110.97L883.564 109.69L882.124 108.68ZM794.24 147.38L794.498 149.67L795.679 148.39L794.24 147.38ZM839.523 103.8L839.782 106.09L840.962 104.81L839.523 103.8ZM827.5 189.13L827.759 191.42L828.94 190.14L827.5 189.13ZM736.116 99.95L736.375 102.24L737.555 100.96L736.116 99.95ZM742.412 186.74L742.671 189.03L743.851 187.75L742.412 186.74ZM615.675 115.39L615.923 117.68L617.104 116.4L615.675 115.39ZM482.952 165.98L483.211 168.27L484.391 166.99L482.952 165.98ZM398.744 532.73L405.495 535.13L403.486 530.39L398.744 532.73ZM299.872 557.17L306.624 559.57L304.615 554.83L299.872 557.17ZM394.405 319.58L400.783 321.86L398.878 317.37L394.405 319.58ZM294.125 320.63L297.087 320.17L295.347 318.85L294.125 320.63ZM315.85 386.49L318.812 386.03L317.072 384.7L315.85 386.49ZM290.604 371.93L293.566 371.47L291.816 370.14L290.604 371.93ZM402.223 380.66L405.184 380.2L403.434 378.88L402.223 380.66ZM292.468 495.9L295.43 495.44L293.69 494.12L292.468 495.9ZM404.781 482.62L407.742 482.16L406.003 480.83L404.781 482.62ZM321.048 631.53L324.01 631.07L322.27 629.74L321.048 631.53ZM318.656 143.09L324.435 145.15L322.716 141.09L318.656 143.09ZM680.778 160.03L684.723 156.89L680.954 156.4L680.778 160.03ZM364.457 237.92L367.419 237.46L365.679 236.13L364.457 237.92ZM380.187 193.39L383.149 192.93L381.409 191.6L380.187 193.39ZM696.507 485.94L703.259 488.35L701.25 483.6L696.507 485.94ZM597.636 510.39L604.387 512.79L602.379 508.05L597.636 510.39ZM692.168 272.8L698.558 275.08L696.652 270.59L692.168 272.8ZM477.319 233.84L483.667 236.1L481.782 231.64L477.319 233.84ZM532.067 364.64L537.607 360.22L532.315 359.53L532.067 364.64ZM591.899 273.85L594.861 273.39L593.121 272.06L591.899 273.85ZM647.972 376.44L650.934 375.98L649.194 374.65L647.972 376.44ZM588.378 325.15L591.34 324.69L589.6 323.36L588.378 325.15ZM699.997 333.87L702.959 333.41L701.219 332.08L699.997 333.87ZM590.232 449.12L593.193 448.66L591.454 447.33L590.232 449.12ZM702.544 435.83L705.506 435.37L703.756 434.04L702.544 435.83ZM618.274 592.2L621.235 591.74L619.496 590.41L618.274 592.2ZM556.909 658.36L559.87 657.9L558.131 656.57L556.909 658.36ZM451.772 645.68L454.61 646.69L453.761 644.7L451.772 645.68ZM491.247 569.5L497.998 571.91L495.989 567.17L491.247 569.5ZM425.75 592.49L428.711 592.03L426.972 590.7L425.75 592.49ZM337.027 188.7L330.275 186.3L332.284 191.04L337.027 188.7ZM282.91 302.07L276.159 299.67L278.168 304.41L282.91 302.07ZM379.721 325.01L372.969 322.61L374.978 327.35L379.721 325.01ZM275.051 584.47L268.672 582.2L270.577 586.69L275.051 584.47ZM500.131 601.52L493.784 599.26L495.679 603.72L500.131 601.52ZM445.342 470.74L439.802 475.16L445.083 475.85L445.342 470.74ZM447.672 120.05L445.042 122.15L447.548 122.48L447.672 120.05ZM385.541 561.55L382.579 562.01L384.329 563.33L385.541 561.55ZM363.981 470.58L361.02 471.04L362.759 472.37L363.981 470.58ZM389.041 510.25L386.079 510.71L387.819 512.04L389.041 510.25ZM527.283 524.29L524.321 524.75L526.061 526.07L527.283 524.29ZM277.422 501.56L274.46 502.02L276.2 503.34L277.422 501.56ZM387.146 386.28L384.184 386.74L385.924 388.06L387.146 386.28ZM274.844 399.6L271.882 400.06L273.632 401.39L274.844 399.6ZM359.062 243.2L356.101 243.66L357.84 244.98L359.062 243.2ZM420.396 177.03L417.435 177.49L419.174 178.81L420.396 177.03ZM284.495 87.79L281.533 88.25L283.273 89.58L284.495 87.79ZM526.475 189.37L522.726 188.04L523.845 190.67L526.475 189.37ZM549.029 226.66L546.067 227.12L547.807 228.45L549.029 226.66ZM315.25 644.29L312.288 644.75L314.028 646.08L315.25 644.29ZM339.688 127.78L337.524 132.58L340.589 131.56L339.108 134.84L343.146 133.5L342.898 132.97L344.358 133.89L343.882 131.05L342.68 132.51L341.396 129.77L341.013 130.63L339.688 127.78ZM288.45 131.18L288.709 133.47L289.89 132.19L288.45 131.18ZM347.019 319.58L341.479 323.99L346.76 324.69L347.019 319.58ZM464.023 446.66L458.483 451.07L463.764 451.77L464.023 446.66ZM491.36 352.25L485.82 356.66L491.112 357.36L491.36 352.25ZM658.535 549.57L653.285 553.74L658.286 554.4L658.535 549.57ZM801.064 390.41L795.855 394.56L800.826 395.22L801.064 390.41ZM655.666 370.57L656.878 377.38L660.14 373.33L655.666 370.57ZM340.402 193.28L340.982 196.51L342.535 194.59L340.402 193.28ZM707.701 465.68L706.635 468.37L708.706 467.58L707.701 465.68ZM587.094 461.04L586.028 463.73L588.099 462.94L587.094 461.04ZM663.164 437.12L662.097 439.81L664.168 439.02L663.164 437.12ZM744.949 329.23L743.882 331.92L745.953 331.13L744.949 329.23ZM599.51 525.55L598.444 528.24L600.515 527.45L599.51 525.55ZM550.354 376.71L549.287 379.4L551.358 378.61L550.354 376.71ZM506.22 476.72L505.154 479.41L507.225 478.62L506.22 476.72ZM407.214 328.52L406.147 331.21L408.219 330.42L407.214 328.52ZM378.178 244.44L377.112 247.13L379.183 246.34L378.178 244.44ZM442.349 162.44L439.274 164.89L442.204 165.28L442.349 162.44ZM487.27 162.34L486.204 165.03L488.275 164.24L487.27 162.34ZM855.677 574.79L850.934 578.56L855.459 579.16L855.677 574.79ZM747.206 565.48L746.14 568.17L748.211 567.38L747.206 565.48ZM779.515 600.81L778.448 603.5L780.519 602.71L779.515 600.81ZM389.703 595.95L384.163 600.36L389.445 601.06L389.703 595.95ZM694.488 661.35L689.269 665.5L694.239 666.16L694.488 661.35ZM451.079 611.33L452.301 618.14L455.562 614.09L451.079 611.33ZM638.363 600.17L637.296 602.86L639.367 602.07L638.363 600.17ZM443.778 647.64L442.712 650.33L444.783 649.54L443.778 647.64ZM300.638 599.45L299.572 602.14L301.643 601.35L300.638 599.45ZM271.602 515.38L270.536 518.07L272.607 517.28L271.602 515.38ZM335.577 434.31L333.247 436.16L335.463 436.45L335.577 434.31ZM366.87 514.18L361.33 518.59L366.611 519.29L366.87 514.18ZM396.59 439.25L395.523 441.94L397.594 441.15L396.59 439.25ZM293.379 286.91L296.631 291.11L297.397 287.3L293.379 286.91ZM270.836 331.2L273.031 332.13L272.462 330.51L270.836 331.2ZM532.729 273.38L525.978 270.98L527.987 275.72L532.729 273.38ZM476.563 434.17L469.811 431.77L471.82 436.51L476.563 434.17ZM575.424 409.69L568.672 407.29L570.681 412.03L575.424 409.69ZM480.974 647.31L474.585 645.04L476.49 649.53L480.974 647.31ZM641.045 555.42L635.505 559.84L640.786 560.53L641.045 555.42ZM643.375 204.73L640.745 206.83L643.25 207.16L643.375 204.73ZM581.244 646.23L578.282 646.69L580.022 648.02L581.244 646.23ZM525.129 543.66L522.167 544.12L523.917 545.44L525.129 543.66ZM584.744 594.93L581.782 595.39L583.522 596.71L584.744 594.93ZM722.986 608.97L720.024 609.43L721.764 610.75L722.986 608.97ZM473.125 586.24L470.163 586.7L471.903 588.02L473.125 586.24ZM582.849 470.96L579.887 471.42L581.637 472.74L582.849 470.96ZM470.546 484.28L467.585 484.74L469.325 486.07L470.546 484.28ZM554.765 327.88L551.804 328.34L553.554 329.67L554.765 327.88ZM616.109 261.71L613.148 262.17L614.898 263.49L616.109 261.71ZM480.197 172.47L477.236 172.93L478.976 174.25L480.197 172.47ZM722.178 274.05L718.429 272.72L719.548 275.35L722.178 274.05ZM744.731 311.33L741.77 311.79L743.52 313.12L744.731 311.33ZM277.671 456.57L270.919 454.17L272.928 458.91L277.671 456.57ZM343.291 602.29L337.751 606.71L343.043 607.4L343.291 602.29ZM310.165 247.78L305.785 251.28L309.968 251.83L310.165 247.78ZM287.001 641.8L284.039 642.26L285.779 643.58L287.001 641.8ZM425.232 655.84L422.271 656.3L424.01 657.63L425.232 655.84ZM285.095 517.83L282.134 518.29L283.884 519.61L285.095 517.83ZM257.012 374.76L254.05 375.22L255.79 376.55L257.012 374.76ZM318.356 308.58L315.395 309.04L317.145 310.36L318.356 308.58ZM423.492 321.23L420.665 320.22L421.504 322.21L423.492 321.23ZM384.039 397.43L377.298 395.02L379.307 399.76C383.656 397.62 379.98 399.44 384.039 397.43ZM449.536 374.42L446.574 374.88L448.324 376.21L449.536 374.42ZM357.561 206.71L355.272 211.79L359.311 210.45L357.561 206.71ZM535.391 212.45L533.227 217.25L537.048 215.98L535.391 212.45ZM465.659 85.62L469.097 90.06L469.894 86.03L465.659 85.62ZM538.787 135.42L539.046 137.71L540.227 136.43L538.787 135.42ZM450.892 174.11L451.151 176.4L452.332 175.12L450.892 174.11ZM496.176 130.53L496.434 132.82L497.615 131.54L496.176 130.53ZM484.153 215.86L484.412 218.15L485.593 216.87L484.153 215.86ZM392.769 126.68L393.027 128.97L394.208 127.69L392.769 126.68ZM399.065 213.48L399.323 215.77L400.504 214.49L399.065 213.48ZM272.327 142.12L272.586 144.41L273.767 143.13L272.327 142.12ZM793.701 228.72L796.207 222.24L791.268 224.17L793.701 228.72ZM819.196 323.6L821.702 317.12L816.762 319.05L819.196 323.6ZM531.104 439.18L533.465 433.09L528.815 434.91L531.104 439.18ZM667.368 386.59L662.77 381.28L662.045 386.36L667.368 386.59ZM572.752 329.2L572.276 326.35L570.899 328.02L572.752 329.2ZM679.618 275.33L679.142 272.48L677.764 274.15L679.618 275.33ZM626.206 332.55L625.729 329.71L624.352 331.38L626.206 332.55ZM611.574 465.23L611.098 462.38L609.72 464.05L611.574 465.23ZM635.256 225.42L634.78 222.58L633.403 224.25L635.256 225.42ZM755.366 330.73L754.89 327.88L753.513 329.55L755.366 330.73ZM741.49 222.94L741.014 220.1L739.637 221.77L741.49 222.94ZM904.429 303.77L903.953 300.93L902.576 302.6L904.429 303.77ZM921.671 486.11L921.194 483.26L919.817 484.93L921.671 486.11ZM391.878 285.72L394.022 280.18L389.797 281.83L391.878 285.72ZM486.556 261.72L486.079 258.88L484.702 260.55L486.556 261.72ZM482.269 153.4L484.63 147.31L479.98 149.13L482.269 153.4ZM618.533 100.81L613.935 95.5L613.22 100.57L618.533 100.81ZM562.739 179.45L562.262 176.6L560.885 178.27L562.739 179.45ZM911.357 177.78L912.413 175.06L910.342 175.87L911.357 177.78ZM831.974 139.92L834.48 133.44L829.54 135.37L831.974 139.92ZM855.946 202.78L855.47 199.93L854.093 201.6L855.946 202.78ZM546.129 639.8L548.635 633.32L543.696 635.25L546.129 639.8ZM350.54 651.65L352.911 645.52L348.241 647.35L350.54 651.65ZM387.684 636.5L387.208 633.66L385.831 635.33L387.684 636.5ZM493.918 634.02L493.442 631.17L492.065 632.85L493.918 634.02ZM818.781 643.29L818.305 640.44L816.928 642.11L818.781 643.29ZM702.047 388.66L702.71 386.94L701.395 387.45L702.047 388.66ZM312.982 409.25L315.488 402.77L310.548 404.7L312.982 409.25ZM522.788 448.9L525.294 442.42L520.355 444.35L522.788 448.9ZM275.216 358.25L277.588 352.12L272.918 353.95L275.216 358.25ZM356.712 558.4L352.114 553.09L351.4 558.16L356.712 558.4ZM740.32 480.09L736.675 475.88L736.106 479.9L740.32 480.09ZM296.89 430.53L296.413 427.69L295.036 429.36L296.89 430.53ZM329.788 457.85L329.312 455.01L327.935 456.69L329.788 457.85ZM315.167 590.53L314.69 587.69L313.313 589.36L315.167 590.53ZM338.849 350.71L338.373 347.87L336.995 349.54L338.849 350.71ZM458.959 456.03L458.483 453.19L457.105 454.86L458.959 456.03ZM445.073 348.24L444.596 345.4L443.219 347.07L445.073 348.24ZM608.022 429.07L607.546 426.23L606.168 427.9L608.022 429.07ZM676.967 487.95L676.491 485.11L675.113 486.78L676.967 487.95ZM769.946 357.5L769.47 354.66L768.093 356.33L769.946 357.5ZM663.785 588.86L664.831 586.14L662.76 586.95L663.785 588.86ZM584.402 551L586.908 544.52L581.968 546.45L584.402 551ZM608.385 613.85L607.908 611.01L606.531 612.68L608.385 613.85ZM835.205 399.27L829.913 397.07L831.311 400.95L835.205 399.27ZM783.108 525.58L777.816 523.38L779.214 527.26L783.108 525.58ZM909.265 629.33L904.647 632.64L908.841 633.41L909.265 629.33ZM929.23 346.94L924.612 350.25L928.805 351.02L929.23 346.94ZM817.073 615.16L814.681 615.4L816.017 616.53L817.073 615.16ZM862.47 658.62L860.078 658.86L861.414 659.99L862.47 658.62ZM773.571 647.08L771.179 647.32L772.514 648.45L773.571 647.08ZM866.488 559.38L864.096 559.63L865.432 560.76L866.488 559.38ZM776.056 565.41L773.664 565.65L775 566.78L776.056 565.41ZM850.396 443.77L848.004 444.01L849.34 445.14L850.396 443.77ZM902.42 393.36L900.028 393.61L901.364 394.74L902.42 393.36ZM797.688 316.38L795.296 316.63L796.632 317.76L797.688 316.38ZM560.688 315.83L563.194 309.35L558.255 311.28L560.688 315.83ZM586.183 410.72L588.689 404.24L583.749 406.17L586.183 410.72ZM359.052 280.43L361.423 274.3L356.753 276.13L359.052 280.43ZM298.101 526.29L300.452 520.2L295.802 522.02L298.101 526.29ZM434.355 473.7L429.757 468.39L429.043 473.46L434.355 473.7ZM799.728 475.94L797.543 473.42L797.201 475.83L799.728 475.94ZM339.74 416.31L339.263 413.47L337.886 415.14L339.74 416.31ZM446.605 362.45L446.129 359.61L444.752 361.28L446.605 362.45ZM393.193 419.67L392.717 416.82L391.34 418.49L393.193 419.67ZM378.561 552.35L378.085 549.51L376.708 551.18L378.561 552.35ZM402.244 312.53L401.767 309.69L400.39 311.36L402.244 312.53ZM522.354 417.84L521.877 415L520.5 416.67L522.354 417.84ZM508.478 310.05L508.001 307.21L506.624 308.88L508.478 310.05ZM671.417 390.89L670.94 388.05L669.563 389.72L671.417 390.89ZM740.372 449.76L739.896 446.92L738.518 448.59L740.372 449.76ZM833.341 319.32L832.865 316.48L831.487 318.15L833.341 319.32ZM727.511 551.57L728.898 547.98L726.154 549.05L727.511 551.57ZM688.658 573.22L688.182 570.38L686.804 572.05L688.658 573.22ZM537.348 124.93L539.854 118.45L534.914 120.38L537.348 124.93ZM385.52 187.92L380.922 182.61L380.208 187.68L385.52 187.92ZM754.879 156.12L751.234 151.91L750.665 155.93L754.879 156.12ZM290.904 130.52L290.428 127.68L289.051 129.35L290.904 130.52ZM397.77 76.66L397.294 73.8199L395.917 75.49L397.77 76.66ZM288.751 274.33L288.274 271.49L286.897 273.17L288.751 274.33ZM473.518 132.06L473.042 129.22L471.665 130.89L473.518 132.06ZM622.581 105.1L622.105 102.26L620.728 103.93L622.581 105.1ZM691.526 163.98L691.05 161.14L689.673 162.81L691.526 163.98ZM678.344 264.89L679.39 262.17L677.319 262.98L678.344 264.89ZM598.961 227.03L601.467 220.55L596.528 222.48L598.961 227.03ZM622.944 289.89L622.468 287.05L621.09 288.72L622.944 289.89ZM797.667 201.61L792.376 199.41L793.774 203.29L797.667 201.61ZM877.837 186.1L873.944 187.77L872.546 183.89L877.837 186.1ZM791.682 372.29L786.67 370.21L787.995 373.88L791.682 372.29ZM923.835 305.36L919.206 308.67L923.4 309.44L923.835 305.36ZM871.945 375.55L869.553 375.8L870.889 376.93L871.945 375.55ZM831.632 291.19L829.24 291.43L830.576 292.56L831.632 291.19ZM877.04 334.66L874.648 334.9L875.984 336.03L877.04 334.66ZM788.13 323.12L785.738 323.36L787.074 324.49L788.13 323.12ZM881.047 235.41L878.655 235.65L879.991 236.78L881.047 235.41ZM790.615 241.45L788.223 241.7L789.559 242.83L790.615 241.45ZM864.966 119.8L862.573 120.04L863.909 121.17L864.966 119.8Z" fill="#999999"/>
<path opacity="0.13" fill-rule="evenodd" clip-rule="evenodd" d="M644.79 297.09L647.545 289.25L641.704 291.73L644.79 297.09ZM76 288.26V288.27V288.26ZM76 347.55V348.08L76.2382 348.17L76 347.55ZM450.164 133.35L450.144 133.37L449.44 133.67L449.553 133.87L443.692 138.82L450.04 139.48L450.123 134.89L452.349 138.75L454.959 131.34L450.154 133.38V133.35H450.164ZM594.878 281.43L588.406 286.89L594.754 287.54L594.878 281.43ZM624.111 167.52L617.639 172.99L623.987 173.65L624.111 167.52ZM437.572 -17.56L438.38 -13.71L440.161 -16.06L437.572 -17.56ZM742.699 294.43L741.518 297.69L743.962 296.68L742.699 294.43ZM759.951 371.21L758.77 374.47L761.214 373.46L759.951 371.21ZM695.614 194.77L694.433 198.03L696.877 197.02L695.614 194.77ZM646.499 315.96L645.318 319.22L647.762 318.21L646.499 315.96ZM522.537 141.99L521.356 145.25L523.8 144.24L522.537 141.99ZM484.668 42.37L483.487 45.63L485.931 44.62L484.668 42.37ZM309.53 129.23L308.35 132.49L310.794 131.48L309.53 129.23ZM282.027 461.23L280.308 462.68L281.996 462.85L282.027 461.23ZM477.378 609.29L470.906 614.75L477.254 615.41L477.378 609.29ZM506.611 495.38L500.139 500.84L506.486 501.5L506.611 495.38ZM703.898 511.69L705.606 519.8L709.365 514.84L703.898 511.69ZM295.737 344L297.094 350.42L300.066 346.49L295.737 344ZM769.695 623.73L768.514 626.99L770.958 625.98L769.695 623.73ZM625.198 622.29L624.018 625.55L626.462 624.54L625.198 622.29ZM715.34 591.07L714.16 594.33L716.604 593.32L715.34 591.07ZM578.103 522.63L576.922 525.89L579.366 524.88L578.103 522.63ZM528.999 643.82L527.818 647.08L530.262 646.07L528.999 643.82ZM405.026 469.85L403.846 473.11L406.289 472.1L405.026 469.85ZM367.167 370.23L365.987 373.49L368.431 372.48L367.167 370.23ZM192.02 457.09L190.839 460.35L193.283 459.34L192.02 457.09ZM440.731 271.03L438.018 273.32L440.679 273.59L440.731 271.03ZM502.023 354.18L495.551 359.65L501.899 360.31L502.023 354.18ZM513.921 274.87L512.741 278.13L515.185 277.12L513.921 274.87ZM147.927 377.51L152.204 382.71L153.022 377.86L147.927 377.51ZM277.533 272.74L281.81 277.94L282.628 273.09L277.533 272.74ZM208.961 297.56L213.237 302.76L214.056 297.91L208.961 297.56ZM384.761 96.08L388.81 101L389.586 96.41L384.761 96.08ZM229.029 -38.71L233.047 -33.82L233.813 -38.38L229.029 -38.71ZM205.885 94.65L212.72 93.69L208.754 90.59L205.885 94.65ZM302.085 48.92L304.746 49.96L304.011 48.04L302.085 48.92ZM294.702 159.81L297.363 160.85L296.628 158.93L295.51 159.44L294.867 156.21L293.273 158.26L295.375 159.5L294.702 159.81ZM272.531 89.26L275.193 90.3L274.457 88.38L272.531 89.26ZM166.629 11.54L169.29 12.58L168.555 10.66L166.629 11.54ZM359.432 149.85L362.093 150.9L361.358 148.98L359.432 149.85ZM209.623 191.69L212.285 192.73L211.55 190.81L209.623 191.69ZM308.516 234.59L310.504 235.37L309.862 236.37L313.393 235.72L311.26 234.19L310.866 234.81L310.442 233.71L308.516 234.59ZM158.22 322.32L160.892 323.37L160.157 321.45L158.22 322.32ZM138.463 485.31L141.124 486.36L140.389 484.44L138.463 485.31ZM288.085 432.49L290.28 433.11L289.524 431.65L288.085 432.49ZM313.621 194.84L321.895 197.15L319.068 191.65L313.621 194.84ZM197.756 232.2L206.03 234.52L203.203 229.02L197.756 232.2ZM106.372 63.6L112.585 57.87L106.206 57.48L106.372 63.6ZM177.616 484.2L182.534 479.66L177.481 479.35L177.616 484.2ZM169.652 -49.77L173.152 -50.56L170.947 -52L169.652 -49.77ZM245.836 68.09L249.336 67.3L247.13 65.86L245.836 68.09ZM170.067 11.78L173.556 10.99L171.361 9.54999L170.067 11.78ZM304.125 12.96L307.625 12.17L305.419 10.73L304.125 12.96ZM183.414 159.66L186.915 158.87L184.719 157.43L183.414 159.66ZM316.323 134.51L319.824 133.72L317.618 132.28L316.323 134.51ZM180.795 320.37L184.295 319.58L182.099 318.14L180.795 320.37ZM162.404 412.27L165.904 411.48L163.709 410.04L162.404 412.27ZM332.674 507.64L336.174 506.85L333.979 505.41L332.674 507.64ZM76.0207 311.59L84.2945 313.9L81.4675 308.4L76.0207 311.59ZM286.314 586.02L288.603 579.77L283.901 581.71L286.314 586.02ZM124.7 537.15L126.979 530.9L122.277 532.83L124.7 537.15ZM150.878 627.71L153.157 621.45L148.455 623.39L150.878 627.71ZM89.8035 635.61L89.2961 632.89L88.0017 634.52L89.8035 635.61ZM232.25 607.26L231.742 604.54L230.448 606.17L232.25 607.26ZM299.434 662.56L298.927 659.84L297.632 661.47L299.434 662.56ZM386.211 535.91L385.703 533.19L384.409 534.82L386.211 535.91ZM755.933 339.06L747.773 336.42L750.362 342.03L755.933 339.06ZM769.104 593.97L761.38 591.47L763.823 596.77L769.104 593.97ZM757.455 521.16L753.924 521.81L756.057 523.33L757.455 521.16ZM750.579 399.23L747.048 399.88L749.181 401.4L750.579 399.23ZM750.579 25.77L747.048 26.42L749.181 27.95L750.579 25.77ZM437.272 168.91L435.098 168.21L435.781 169.7L437.272 168.91ZM401.35 405.32L393.19 402.67L395.779 408.28L401.35 405.32ZM518.747 372.66L510.587 370.02L513.176 375.63L518.747 372.66ZM414.522 660.23L406.797 657.73L409.241 663.03L414.522 660.23ZM602.676 544.81L596.214 550.28L602.562 550.93L602.676 544.81ZM549.906 121.7L544.79 126.04L549.823 126.55L549.906 121.7ZM534.487 655.52L530.956 656.17L533.089 657.69L534.487 655.52ZM463.523 534.69L459.991 535.34L462.125 536.87L463.523 534.69ZM536.775 594.01L533.244 594.66L535.377 596.18L536.775 594.01ZM702.717 606.09L699.186 606.74L701.319 608.27L702.717 606.09ZM402.872 587.42L399.341 588.07L401.474 589.59L402.872 587.42ZM529.899 445.72L526.368 446.37L528.501 447.9L529.899 445.72ZM396.007 465.49L392.476 466.14L394.609 467.66L396.007 465.49ZM490.995 275.47L487.464 276.12L489.597 277.65L490.995 275.47ZM561.949 194.18L558.418 194.83L560.551 196.35L561.949 194.18ZM396.007 92.03L392.476 92.68L394.609 94.21L396.007 92.03ZM688.241 205.73L684.813 204.62L685.9 206.97L688.241 205.73ZM643.848 298.26L638.267 301.22L635.688 295.61L643.848 298.26ZM721.367 268.48L717.836 269.13L719.969 270.66L721.367 268.48ZM445.753 15.59L443.195 21.75L447.979 20.01L445.753 15.59ZM605.099 70.93L602.541 77.09L607.325 75.35L605.099 70.93ZM582.897 -20.6L580.34 -14.45L585.124 -16.19L582.897 -20.6ZM715.578 28.74L715.972 31.48L717.339 29.9L715.578 28.74ZM768.152 -24.96L768.545 -22.22L769.912 -23.79L768.152 -24.96ZM756.927 77.56L757.32 80.3L758.687 78.72L756.927 77.56ZM644.262 -26.04L644.656 -23.3L646.023 -24.88L644.262 -26.04ZM655.011 77.61L655.404 80.35L656.771 78.78L655.011 77.61ZM500.708 -3.45001L501.102 -0.710022L502.468 -2.28998L500.708 -3.45001ZM343.754 61.63L344.138 64.37L345.504 62.8L343.754 61.63ZM256.564 503.38L264.723 506.03L262.145 500.42L256.564 503.38ZM139.156 536L147.316 538.65L144.738 533.04L139.156 536ZM243.485 248.46L251.21 250.97L248.766 245.66L243.485 248.46ZM123.52 253.14L127.051 252.49L124.918 250.96L123.52 253.14ZM151.955 331.21L155.487 330.56L153.353 329.03L151.955 331.21ZM121.211 314.65L124.742 314L122.609 312.47L121.211 314.65ZM255.104 321.28L258.635 320.63L256.501 319.1L255.104 321.28ZM128.025 462.94L131.556 462.29L129.422 460.76L128.025 462.94ZM261.938 443.21L265.469 442.56L263.336 441.03L261.938 443.21ZM167.26 624.26L170.791 623.61L168.658 622.08L167.26 624.26ZM146.291 39.84L153.281 42.11L151.075 37.31L146.291 39.84ZM580.267 47.76L584.875 43.86L580.35 43.4L580.267 47.76ZM204.612 151.76L208.143 151.11L206.01 149.58L204.612 151.76ZM221.801 97.94L225.332 97.29L223.199 95.76L221.801 97.94ZM611.167 437.23L619.327 439.88L616.748 434.27L611.167 437.23ZM493.76 469.85L501.92 472.5L499.341 466.89L493.76 469.85ZM598.078 182.31L605.803 184.82L603.359 179.52L598.078 182.31ZM339.529 143.02L347.213 145.51L344.79 140.24L339.529 143.02ZM409.893 297.68L416.355 292.21L410.007 291.56L409.893 297.68ZM478.123 186.99L481.655 186.34L479.521 184.81L478.123 186.99ZM549.036 307.84L552.567 307.19L550.434 305.66L549.036 307.84ZM475.814 248.5L479.345 247.85L477.212 246.33L475.814 248.5ZM609.707 255.13L613.238 254.48L611.105 252.95L609.707 255.13ZM482.628 396.79L486.159 396.14L484.026 394.61L482.628 396.79ZM616.531 377.06L620.062 376.41L617.929 374.88L616.531 377.06ZM521.481 567.06L525.012 566.41L522.879 564.88L521.481 567.06ZM450.496 648.32L454.027 647.67L451.894 646.14L450.496 648.32ZM324.214 636.73L327.642 637.84L326.554 635.49L324.214 636.73ZM368.628 544.22L376.787 546.87L374.209 541.26L368.628 544.22ZM291.109 573.97L294.64 573.32L292.506 571.79L291.109 573.97ZM169.963 93.79L161.803 91.14L164.392 96.75L169.963 93.79ZM109.406 231.31L101.246 228.66L103.824 234.27L109.406 231.31ZM226.109 255.46L217.939 252.82L220.528 258.43L226.109 255.46ZM110.462 569.52L102.737 567.02L105.181 572.32L110.462 569.52ZM380.453 582.24L372.77 579.75L375.203 585.02L380.453 582.24ZM310.038 427.61L303.576 433.08L309.934 433.73L310.038 427.61ZM299.838 7.87L296.773 10.47L299.786 10.78L299.838 7.87ZM241.839 538.32L238.307 538.97L240.441 540.5L241.839 538.32ZM212.668 430.19L209.137 430.84L211.27 432.37L212.668 430.19ZM244.137 476.81L240.606 477.46L242.739 478.99L244.137 476.81ZM410.069 488.89L406.538 489.54L408.671 491.07L410.069 488.89ZM110.234 470.22L106.703 470.87L108.836 472.4L110.234 470.22ZM237.262 328.52L233.73 329.17L235.864 330.69L237.262 328.52ZM103.369 348.29L99.8377 348.94L101.971 350.47L103.369 348.29ZM198.357 158.27L194.826 158.92L196.959 160.45L198.357 158.27ZM269.311 76.98L265.78 77.63L267.913 79.15L269.311 76.98ZM103.369 -25.17L99.8377 -24.52L101.971 -23L103.369 -25.17ZM396.701 88.13L392.175 86.66L393.615 89.77L396.701 88.13ZM425.074 131.98L421.543 132.63L423.676 134.16L425.074 131.98ZM160.778 639.73L157.247 640.38L159.38 641.91L160.778 639.73ZM170.895 20.79L168.482 26.61L172.117 25.28L170.47 29.26L175.255 27.52L174.934 26.89L176.715 27.94L176.042 24.55L174.654 26.34L173.018 23.11L172.593 24.15L170.895 20.79ZM109.706 26.62L110.1 29.36L111.467 27.79L109.706 26.62ZM186.78 250.08L180.308 255.54L186.656 256.2L186.78 250.08ZM331.494 398.15L325.022 403.61L331.37 404.27L331.494 398.15ZM360.727 284.24L354.255 289.7L360.602 290.36L360.727 284.24ZM568.079 514.66L561.959 519.83L567.965 520.45L568.079 514.66ZM732.747 319.34L726.659 324.48L732.633 325.1L732.747 319.34ZM558.014 300.55L559.722 308.66L563.481 303.7L558.014 300.55ZM174.188 99.16L174.996 103.01L176.777 100.66L174.188 99.16ZM623.811 412.6L622.63 415.86L625.074 414.85L623.811 412.6ZM479.314 411.16L478.134 414.42L480.578 413.41L479.314 411.16ZM569.456 379.94L568.276 383.2L570.72 382.19L569.456 379.94ZM663.326 248.04L662.146 251.3L664.589 250.29L663.326 248.04ZM496.556 487.94L495.375 491.2L497.819 490.19L496.556 487.94ZM432.219 311.5L431.038 314.76L433.482 313.75L432.219 311.5ZM383.115 432.68L381.934 435.94L384.378 434.93L383.115 432.68ZM259.142 258.71L257.962 261.97L260.405 260.96L259.142 258.71ZM221.283 159.09L220.103 162.35L222.547 161.34L221.283 159.09ZM295.044 58.78L291.45 61.81L294.971 62.17L295.044 58.78ZM348.787 57.12L347.607 60.38L350.05 59.37L348.787 57.12ZM674.779 530.68L673.599 533.94L676.042 532.93L674.779 530.68ZM714.76 571.86L713.58 575.12L716.024 574.11L714.76 571.86ZM248.093 579.35L241.621 584.81L247.969 585.47L248.093 579.35ZM615.237 647.2L609.148 652.34L615.123 652.96L615.237 647.2ZM322.112 595.66L323.821 603.77L327.58 598.81L322.112 595.66ZM545.826 575.9L544.645 579.16L547.089 578.15L545.826 575.9ZM314.718 639.36L313.538 642.62L315.982 641.61L314.718 639.36ZM141.642 586.57L140.461 589.83L142.905 588.82L141.642 586.57ZM103.773 486.95L102.592 490.21L105.036 489.2L103.773 486.95ZM177.336 387.76L174.623 390.05L177.284 390.33L177.336 387.76ZM217.742 482.28L211.27 487.74L217.618 488.4L217.742 482.28ZM250.527 391.59L249.346 394.85L251.79 393.84L250.527 391.59ZM121.376 212.81L125.425 217.73L126.202 213.14L121.376 212.81ZM96.0477 266.58L98.709 267.62L97.9737 265.7L96.0477 266.58ZM407.294 188.45L399.134 185.8L401.723 191.4L407.294 188.45ZM346.043 382.78L337.873 380.14L340.461 385.75L346.043 382.78ZM463.44 350.12L455.27 347.48L457.858 353.09L463.44 350.12ZM359.215 637.69L351.49 635.19L353.934 640.49L359.215 637.69ZM547.369 522.26L540.907 527.73L547.265 528.37L547.369 522.26ZM537.169 102.52L534.104 105.12L537.117 105.43L537.169 102.52ZM479.18 632.97L475.649 633.62L477.782 635.15L479.18 632.97ZM408.226 512.15L404.695 512.8L406.828 514.33L408.226 512.15ZM481.468 571.46L477.937 572.11L480.07 573.63L481.468 571.46ZM647.41 583.55L643.879 584.2L646.012 585.73L647.41 583.55ZM347.565 564.87L344.034 565.52L346.167 567.04L347.565 564.87ZM474.603 423.18L471.072 423.83L473.205 425.35L474.603 423.18ZM340.7 442.95L337.168 443.6L339.302 445.13L340.7 442.95ZM435.688 252.92L432.157 253.57L434.29 255.1L435.688 252.92ZM506.642 171.64L503.111 172.29L505.244 173.82L506.642 171.64ZM340.7 69.48L337.168 70.13L339.302 71.65L340.7 69.48ZM634.031 182.78L629.506 181.31L630.945 184.42L634.031 182.78ZM662.404 226.63L658.873 227.28L661.007 228.81L662.404 226.63ZM108.867 416.37L100.708 413.73L103.286 419.34L108.867 416.37ZM192.796 588.52L186.335 593.99L192.682 594.64L192.796 588.52ZM140.016 165.41L134.9 169.74L139.933 170.25L140.016 165.41ZM126.885 637.72L123.354 638.37L125.487 639.9L126.885 637.72ZM292.828 649.81L289.296 650.46L291.43 651.99L292.828 649.81ZM120.02 489.43L116.489 490.08L118.622 491.61L120.02 489.43ZM81.1155 319.18L77.5843 319.83L79.7175 321.36L81.1155 319.18ZM152.069 237.89L148.538 238.54L150.671 240.07L152.069 237.89ZM278.351 249.44L274.923 248.33L276.011 250.68L278.351 249.44ZM233.969 341.97L225.798 339.33L228.387 344.94C233.513 342.21 229.174 344.51 233.969 341.97ZM311.488 312.19L307.956 312.84L310.1 314.37L311.488 312.19ZM195.209 114.65L192.651 120.81L197.435 119.07L195.209 114.65ZM408.226 115.45L405.813 121.27L410.338 119.62L408.226 115.45ZM320.082 -33.95L324.369 -28.76L325.177 -33.61L320.082 -33.95ZM409.437 23.14L409.831 25.88L411.198 24.3L409.437 23.14ZM305.699 72.45L306.093 75.19L307.459 73.61L305.699 72.45ZM358.272 18.75L358.666 21.49L360.022 19.91L358.272 18.75ZM347.037 121.27L347.43 124.01L348.797 122.44L347.037 121.27ZM234.383 17.68L234.776 20.42L236.143 18.84L234.383 17.68ZM245.131 121.33L245.525 124.07L246.892 122.49L245.131 121.33ZM90.8183 40.26L91.2118 43L92.5787 41.42L90.8183 40.26ZM717.939 126.1L720.694 118.26L714.854 120.74L717.939 126.1ZM751.967 238.78L754.721 230.94L748.881 233.42L751.967 238.78ZM411.508 386.91L414.097 379.54L408.609 381.87L411.508 386.91ZM572.615 319.33L566.909 313.13L566.236 319.23L572.615 319.33ZM457.268 253.88L456.595 250.49L455 252.54L457.268 253.88ZM583.156 185.77L582.483 182.38L580.899 184.43L583.156 185.77ZM521.356 256.07L520.683 252.68L519.099 254.73L521.356 256.07ZM508.764 415.34L508.091 411.95L506.507 414L508.764 415.34ZM528.222 127.56L527.549 124.17L525.964 126.22L528.222 127.56ZM675.856 249.48L675.183 246.09L673.599 248.14L675.856 249.48ZM655.249 120.97L654.576 117.58L652.981 119.63L655.249 120.97ZM239.198 208.02L241.559 201.31L236.557 203.43L239.198 208.02ZM351.614 176.07L350.941 172.68L349.346 174.73L351.614 176.07ZM342.47 46.59L345.059 39.22L339.571 41.55L342.47 46.59ZM503.587 -21L497.881 -27.2L497.208 -21.1L503.587 -21ZM439.737 75.02L439.064 71.63L437.479 73.68L439.737 75.02ZM760.458 18.52L763.212 10.68L757.372 13.16L760.458 18.52ZM436.91 626.48L439.664 618.64L433.824 621.12L436.91 626.48ZM203.296 647.34L205.906 639.93L200.376 642.28L203.296 647.34ZM247.182 627.94L246.509 624.55L244.914 626.6L247.182 627.94ZM374.219 621.35L373.546 617.96L371.952 620.01L374.219 621.35ZM763.326 621.35L762.653 617.96L761.058 620.01L763.326 621.35ZM614.191 320.63L614.926 318.55L613.373 319.21L614.191 320.63ZM149.377 358.54L152.131 350.7L146.291 353.18L149.377 358.54ZM401.899 398.83L404.653 390.99L398.813 393.47L401.899 398.83ZM102.292 298.79L104.901 291.38L99.3717 293.72L102.292 298.79ZM207.231 535.53L201.526 529.33L200.853 535.43L207.231 535.53ZM663.378 428.73L658.863 423.82L658.335 428.65L663.378 428.73ZM130.903 384.56L130.23 381.17L128.635 383.22L130.903 384.56ZM171.289 416.13L170.615 412.75L169.021 414.8L171.289 416.13ZM158.697 575.4L158.024 572.01L156.439 574.06L158.697 575.4ZM178.154 287.61L177.481 284.22L175.897 286.27L178.154 287.61ZM325.778 409.54L325.105 406.16L323.52 408.21L325.778 409.54ZM305.181 281.02L304.508 277.63L302.913 279.68L305.181 281.02ZM503.173 372.19L502.5 368.8L500.905 370.85L503.173 372.19ZM587.857 440.29L587.184 436.9L585.59 438.95L587.857 440.29ZM694.288 281.02L693.615 277.63L692.02 279.68L694.288 281.02ZM575.825 561.51L576.985 558.22L574.53 559.26L575.825 561.51ZM479.428 518.9L482.183 511.06L476.342 513.54L479.428 518.9ZM510.442 593.31L509.769 589.92L508.185 591.97L510.442 593.31ZM773.93 328.77L767.52 326.32L769.332 330.91L773.93 328.77ZM716.262 481.71L709.852 479.26L711.664 483.85L716.262 481.71ZM760.23 587.75L757.372 588.13L759.019 589.44L760.23 587.75ZM709.365 627.43L706.518 627.8L708.154 629.11L709.365 627.43ZM709.303 529.62L706.456 529.99L708.092 531.3L709.303 529.62ZM725.965 230.87L723.117 231.25L724.753 232.56L725.965 230.87ZM442.326 238.3L445.08 230.46L439.24 232.94L442.326 238.3ZM476.353 350.97L479.107 343.13L473.267 345.61L476.353 350.97ZM199.724 202.81L202.333 195.4L196.804 197.75L199.724 202.81ZM135.894 499.11L138.483 491.74L132.985 494.07L135.894 499.11ZM297.001 431.53L291.295 425.33L290.622 431.43L297.001 431.53ZM734.321 421.74L731.619 418.79L731.298 421.69L734.321 421.74ZM181.654 366.08L180.981 362.69L179.386 364.74L181.654 366.08ZM307.542 297.97L306.869 294.58L305.274 296.63L307.542 297.97ZM245.742 368.27L245.069 364.88L243.475 366.93L245.742 368.27ZM233.15 527.54L232.477 524.15L230.883 526.2L233.15 527.54ZM252.608 239.76L251.935 236.37L250.34 238.42L252.608 239.76ZM400.242 361.68L399.569 358.29L397.985 360.34L400.242 361.68ZM379.635 233.17L378.962 229.78L377.378 231.83L379.635 233.17ZM577.627 324.33L576.953 320.95L575.359 323L577.627 324.33ZM662.311 392.44L661.638 389.05L660.054 391.1L662.311 392.44ZM768.742 233.17L768.069 229.78L766.474 231.83L768.742 233.17ZM650.703 514.71L652.225 510.36L648.984 511.74L650.703 514.71ZM605.006 541.94L604.333 538.55L602.738 540.6L605.006 541.94ZM407.325 10.65L410.079 2.81L404.239 5.28998L407.325 10.65ZM227.973 91.2L222.267 85L221.594 91.1L227.973 91.2ZM668.794 40.55L664.279 35.64L663.751 40.47L668.794 40.55ZM112.616 25.75L111.943 22.36L110.359 24.41L112.616 25.75ZM238.504 -42.35L237.831 -45.74L236.236 -43.69L238.504 -42.35ZM115.37 197.91L114.697 194.52L113.113 196.57L115.37 197.91ZM331.204 21.36L330.531 17.97L328.946 20.02L331.204 21.36ZM508.588 -15.99L507.915 -19.38L506.321 -17.33L508.588 -15.99ZM593.284 52.11L592.611 48.72L591.026 50.77L593.284 52.11ZM581.251 173.32L582.411 170.03L579.967 171.07L581.251 173.32ZM484.844 130.72L487.598 122.88L481.758 125.36L484.844 130.72ZM515.868 205.12L515.195 201.74L513.611 203.79L515.868 205.12ZM721.688 93.52L715.278 91.07L717.09 95.66L721.688 93.52ZM720.849 297.98L714.781 295.66L716.5 300L720.849 297.98ZM765.656 199.57L762.809 199.95L764.455 201.26L765.656 199.57ZM714.781 239.25L711.933 239.62L713.58 240.93L714.781 239.25ZM714.729 141.44L711.882 141.82L713.518 143.13L714.729 141.44Z" fill="#999999"/>
</svg>
