<svg width="775" height="600" viewBox="0 0 775 600" fill="none" xmlns="http://www.w3.org/2000/svg">
<path fill-rule="evenodd" clip-rule="evenodd" d="M386.761 303.873C384.927 303.873 383.441 302.387 383.441 300.553V8.40814C383.441 6.57462 384.927 5.08826 386.761 5.08826V5.08826C388.594 5.08826 390.081 6.57461 390.081 8.40813V300.553C390.081 302.387 388.594 303.873 386.761 303.873V303.873Z" fill="#E1B24A" stroke="#E1B24A" stroke-linecap="round" stroke-linejoin="round"/>
<path fill-rule="evenodd" clip-rule="evenodd" d="M386.761 300.664C385.173 301.581 383.142 301.037 382.226 299.449L299.23 155.696C298.313 154.108 298.857 152.078 300.445 151.161V151.161C302.033 150.244 304.063 150.788 304.98 152.376L387.976 296.129C388.892 297.717 388.348 299.747 386.761 300.664V300.664Z" fill="#E1B24A" stroke="#E1B24A" stroke-linecap="round" stroke-linejoin="round"/>
<path fill-rule="evenodd" clip-rule="evenodd" d="M302.658 153.374C302.658 155.208 301.172 156.694 299.338 156.694H133.347C131.513 156.694 130.027 155.208 130.027 153.374V153.374C130.027 151.541 131.513 150.054 133.347 150.054L299.338 150.054C301.172 150.054 302.658 151.541 302.658 153.374V153.374Z" fill="#E1B24A" stroke="#E1B24A" stroke-linecap="round" stroke-linejoin="round"/>
<path fill-rule="evenodd" clip-rule="evenodd" d="M130.027 154.481C129.11 152.893 129.654 150.862 131.242 149.946L384.247 3.87305C385.835 2.9563 387.865 3.50034 388.782 5.08819V5.08819C389.699 6.67605 389.155 8.70642 387.567 9.62317L134.562 155.696C132.974 156.613 130.944 156.069 130.027 154.481V154.481Z" fill="#E1B24A" stroke="#E1B24A" stroke-linecap="round" stroke-linejoin="round"/>
<path fill-rule="evenodd" clip-rule="evenodd" d="M386.761 6.70836C388.349 7.62511 388.893 9.65549 387.976 11.2433L304.98 154.996C304.063 156.584 302.033 157.128 300.445 156.211V156.211C298.857 155.295 298.313 153.264 299.23 151.676L382.226 7.92351C383.142 6.33566 385.173 5.79162 386.761 6.70836V6.70836Z" fill="#E1B24A" stroke="#E1B24A" stroke-linecap="round" stroke-linejoin="round"/>
<path fill-rule="evenodd" clip-rule="evenodd" d="M130.027 153.374C130.944 151.786 132.974 151.242 134.562 152.159L387.567 298.231C389.155 299.148 389.699 301.179 388.782 302.766V302.766C387.866 304.354 385.835 304.898 384.247 303.982L131.242 157.909C129.654 156.992 129.11 154.962 130.027 153.374V153.374Z" fill="#E1B24A" stroke="#E1B24A" stroke-linecap="round" stroke-linejoin="round"/>
<path fill-rule="evenodd" clip-rule="evenodd" d="M130.729 449.855C129.812 448.267 130.356 446.237 131.944 445.32L384.949 299.247C386.537 298.331 388.567 298.875 389.484 300.462V300.462C390.401 302.05 389.857 304.081 388.269 304.997L135.264 451.07C133.676 451.987 131.645 451.443 130.729 449.855V449.855Z" fill="#E1B24A" stroke="#E1B24A" stroke-linecap="round" stroke-linejoin="round"/>
<path fill-rule="evenodd" clip-rule="evenodd" d="M133.508 448.251C131.92 447.334 131.376 445.303 132.293 443.716L215.288 299.963C216.205 298.375 218.235 297.831 219.823 298.747V298.747C221.411 299.664 221.955 301.695 221.038 303.282L138.043 447.035C137.126 448.623 135.095 449.167 133.508 448.251V448.251Z" fill="#E1B24A" stroke="#E1B24A" stroke-linecap="round" stroke-linejoin="round"/>
<path fill-rule="evenodd" clip-rule="evenodd" d="M219.013 301.771C217.425 302.687 215.395 302.143 214.478 300.556L131.482 156.803C130.566 155.215 131.11 153.184 132.698 152.268V152.268C134.285 151.351 136.316 151.895 137.233 153.483L220.228 297.236C221.145 298.824 220.601 300.854 219.013 301.771V301.771Z" fill="#E1B24A" stroke="#E1B24A" stroke-linecap="round" stroke-linejoin="round"/>
<path fill-rule="evenodd" clip-rule="evenodd" d="M131.739 152.821C132.656 151.233 134.686 150.689 136.274 151.606L389.279 297.678C390.867 298.595 391.411 300.625 390.495 302.213V302.213C389.578 303.801 387.548 304.345 385.96 303.428L132.954 157.356C131.367 156.439 130.822 154.409 131.739 152.821V152.821Z" fill="#E1B24A" stroke="#E1B24A" stroke-linecap="round" stroke-linejoin="round"/>
<path fill-rule="evenodd" clip-rule="evenodd" d="M388.081 301.273C388.081 303.106 386.594 304.593 384.761 304.593H218.769C216.936 304.593 215.449 303.106 215.449 301.273V301.273C215.449 299.439 216.936 297.953 218.769 297.953H384.761C386.594 297.953 388.081 299.439 388.081 301.273V301.273Z" fill="#E1B24A" stroke="#E1B24A" stroke-linecap="round" stroke-linejoin="round"/>
<path fill-rule="evenodd" clip-rule="evenodd" d="M132.698 152.268C134.531 152.268 136.017 153.754 136.017 155.587L136.017 447.733C136.017 449.566 134.531 451.052 132.698 451.052V451.052C130.864 451.052 129.378 449.566 129.378 447.733L129.378 155.587C129.378 153.754 130.864 152.268 132.698 152.268V152.268Z" fill="#E1B24A" stroke="#E1B24A" stroke-linecap="round" stroke-linejoin="round"/>
<path fill-rule="evenodd" clip-rule="evenodd" d="M129.526 445.982C130.443 444.394 132.473 443.85 134.061 444.766L387.066 590.839C388.654 591.756 389.198 593.786 388.281 595.374V595.374C387.365 596.962 385.334 597.506 383.747 596.589L130.741 450.516C129.154 449.6 128.609 447.569 129.526 445.982V445.982Z" fill="#E1B24A" stroke="#E1B24A" stroke-linecap="round" stroke-linejoin="round"/>
<path fill-rule="evenodd" clip-rule="evenodd" d="M132.305 447.586C132.305 445.753 133.792 444.266 135.625 444.266L301.617 444.266C303.45 444.266 304.937 445.753 304.937 447.586V447.586C304.937 449.42 303.45 450.906 301.617 450.906L135.625 450.906C133.792 450.906 132.305 449.42 132.305 447.586V447.586Z" fill="#E1B24A" stroke="#E1B24A" stroke-linecap="round" stroke-linejoin="round"/>
<path fill-rule="evenodd" clip-rule="evenodd" d="M301.913 448.396C300.326 447.48 299.782 445.449 300.698 443.861L383.694 300.108C384.611 298.521 386.641 297.977 388.229 298.893V298.893C389.817 299.81 390.361 301.84 389.444 303.428L306.448 447.181C305.532 448.769 303.501 449.313 301.913 448.396V448.396Z" fill="#E1B24A" stroke="#E1B24A" stroke-linecap="round" stroke-linejoin="round"/>
<path fill-rule="evenodd" clip-rule="evenodd" d="M387.271 298.34C389.104 298.34 390.59 299.826 390.59 301.66V593.805C390.59 595.639 389.104 597.125 387.271 597.125V597.125C385.437 597.125 383.951 595.639 383.951 593.805V301.66C383.951 299.826 385.437 298.34 387.271 298.34V298.34Z" fill="#E1B24A" stroke="#E1B24A" stroke-linecap="round" stroke-linejoin="round"/>
<path fill-rule="evenodd" clip-rule="evenodd" d="M386.878 594.564C385.29 595.481 383.26 594.937 382.343 593.349L299.347 449.596C298.431 448.008 298.975 445.978 300.563 445.061V445.061C302.15 444.144 304.181 444.688 305.098 446.276L388.093 590.029C389.01 591.617 388.466 593.647 386.878 594.564V594.564Z" fill="#E1B24A" stroke="#E1B24A" stroke-linecap="round" stroke-linejoin="round"/>
<path fill-rule="evenodd" clip-rule="evenodd" d="M388.229 298.894C389.146 300.481 388.602 302.512 387.014 303.429L134.009 449.501C132.421 450.418 130.39 449.874 129.474 448.286V448.286C128.557 446.698 129.101 444.668 130.689 443.751L383.694 297.679C385.282 296.762 387.312 297.306 388.229 298.894V298.894Z" fill="#E1B24A" stroke="#E1B24A" stroke-linecap="round" stroke-linejoin="round"/>
<path fill-rule="evenodd" clip-rule="evenodd" d="M386.569 298.34C388.402 298.34 389.889 299.826 389.889 301.66L389.889 593.805C389.889 595.639 388.402 597.125 386.569 597.125V597.125C384.735 597.125 383.249 595.639 383.249 593.805L383.249 301.66C383.249 299.826 384.735 298.34 386.569 298.34V298.34Z" fill="#E1B24A" stroke="#E1B24A" stroke-linecap="round" stroke-linejoin="round"/>
<path fill-rule="evenodd" clip-rule="evenodd" d="M386.569 301.549C388.157 300.633 390.187 301.177 391.104 302.765L474.1 446.518C475.017 448.105 474.473 450.136 472.885 451.052V451.052C471.297 451.969 469.266 451.425 468.35 449.837L385.354 306.084C384.437 304.496 384.981 302.466 386.569 301.549V301.549Z" fill="#E1B24A" stroke="#E1B24A" stroke-linecap="round" stroke-linejoin="round"/>
<path fill-rule="evenodd" clip-rule="evenodd" d="M470.671 448.839C470.671 447.006 472.158 445.519 473.991 445.519L639.983 445.519C641.816 445.519 643.303 447.006 643.303 448.839V448.839C643.303 450.673 641.816 452.159 639.983 452.159H473.991C472.158 452.159 470.671 450.673 470.671 448.839V448.839Z" fill="#E1B24A" stroke="#E1B24A" stroke-linecap="round" stroke-linejoin="round"/>
<path fill-rule="evenodd" clip-rule="evenodd" d="M643.303 447.733C644.219 449.32 643.675 451.351 642.088 452.268L389.082 598.34C387.494 599.257 385.464 598.713 384.547 597.125V597.125C383.631 595.537 384.175 593.507 385.762 592.59L638.768 446.517C640.356 445.601 642.386 446.145 643.303 447.733V447.733Z" fill="#E1B24A" stroke="#E1B24A" stroke-linecap="round" stroke-linejoin="round"/>
<path fill-rule="evenodd" clip-rule="evenodd" d="M386.569 595.505C384.981 594.588 384.437 592.558 385.354 590.97L468.35 447.217C469.266 445.629 471.297 445.085 472.885 446.002V446.002C474.472 446.919 475.016 448.949 474.1 450.537L391.104 594.29C390.187 595.878 388.157 596.422 386.569 595.505V595.505Z" fill="#E1B24A" stroke="#E1B24A" stroke-linecap="round" stroke-linejoin="round"/>
<path fill-rule="evenodd" clip-rule="evenodd" d="M643.303 448.839C642.386 450.427 640.356 450.971 638.768 450.054L385.763 303.982C384.175 303.065 383.631 301.035 384.547 299.447V299.447C385.464 297.859 387.494 297.315 389.082 298.232L642.088 444.304C643.675 445.221 644.22 447.251 643.303 448.839V448.839Z" fill="#E1B24A" stroke="#E1B24A" stroke-linecap="round" stroke-linejoin="round"/>
<path fill-rule="evenodd" clip-rule="evenodd" d="M643.76 152.358C644.677 153.946 644.133 155.977 642.545 156.893L389.54 302.966C387.952 303.883 385.922 303.339 385.005 301.751V301.751C384.088 300.163 384.632 298.133 386.22 297.216L639.225 151.143C640.813 150.227 642.844 150.771 643.76 152.358V152.358Z" fill="#E1B24A" stroke="#E1B24A" stroke-linecap="round" stroke-linejoin="round"/>
<path fill-rule="evenodd" clip-rule="evenodd" d="M640.981 153.963C642.569 154.88 643.113 156.91 642.196 158.498L559.2 302.251C558.283 303.839 556.253 304.383 554.665 303.466V303.466C553.077 302.549 552.533 300.519 553.45 298.931L636.446 155.178C637.363 153.59 639.393 153.046 640.981 153.963V153.963Z" fill="#E1B24A" stroke="#E1B24A" stroke-linecap="round" stroke-linejoin="round"/>
<path fill-rule="evenodd" clip-rule="evenodd" d="M555.475 300.443C557.063 299.526 559.094 300.07 560.01 301.658L643.006 445.411C643.923 446.999 643.379 449.029 641.791 449.946V449.946C640.203 450.862 638.173 450.318 637.256 448.731L554.26 304.978C553.344 303.39 553.888 301.359 555.475 300.443V300.443Z" fill="#E1B24A" stroke="#E1B24A" stroke-linecap="round" stroke-linejoin="round"/>
<path fill-rule="evenodd" clip-rule="evenodd" d="M642.749 449.393C641.832 450.98 639.802 451.524 638.214 450.608L385.209 304.535C383.621 303.618 383.077 301.588 383.994 300V300C384.911 298.412 386.941 297.868 388.529 298.785L641.534 444.858C643.122 445.774 643.666 447.805 642.749 449.393V449.393Z" fill="#E1B24A" stroke="#E1B24A" stroke-linecap="round" stroke-linejoin="round"/>
<path fill-rule="evenodd" clip-rule="evenodd" d="M386.408 300.941C386.408 299.107 387.894 297.621 389.728 297.621H555.719C557.553 297.621 559.039 299.107 559.039 300.941V300.941C559.039 302.774 557.553 304.261 555.719 304.261H389.728C387.894 304.261 386.408 302.774 386.408 300.941V300.941Z" fill="#E1B24A" stroke="#E1B24A" stroke-linecap="round" stroke-linejoin="round"/>
<path fill-rule="evenodd" clip-rule="evenodd" d="M641.791 449.946C639.958 449.946 638.471 448.459 638.471 446.626L638.471 154.481C638.471 152.647 639.958 151.161 641.791 151.161V151.161C643.625 151.161 645.111 152.647 645.111 154.481L645.111 446.626C645.111 448.459 643.625 449.946 641.791 449.946V449.946Z" fill="#E1B24A" stroke="#E1B24A" stroke-linecap="round" stroke-linejoin="round"/>
<path fill-rule="evenodd" clip-rule="evenodd" d="M644.004 154.018C643.088 155.606 641.057 156.15 639.469 155.233L386.464 9.16083C384.876 8.24409 384.332 6.21371 385.249 4.62586V4.62586C386.166 3.03801 388.196 2.49396 389.784 3.41071L642.789 149.483C644.377 150.4 644.921 152.43 644.004 154.018V154.018Z" fill="#E1B24A" stroke="#E1B24A" stroke-linecap="round" stroke-linejoin="round"/>
<path fill-rule="evenodd" clip-rule="evenodd" d="M641.225 152.414C641.225 154.247 639.739 155.734 637.905 155.734L471.914 155.734C470.08 155.734 468.594 154.247 468.594 152.414V152.414C468.594 150.58 470.08 149.094 471.914 149.094L637.905 149.094C639.739 149.094 641.225 150.58 641.225 152.414V152.414Z" fill="#E1B24A" stroke="#E1B24A" stroke-linecap="round" stroke-linejoin="round"/>
<path fill-rule="evenodd" clip-rule="evenodd" d="M471.617 151.604C473.205 152.52 473.749 154.551 472.832 156.139L389.836 299.892C388.92 301.479 386.889 302.023 385.301 301.107V301.107C383.714 300.19 383.17 298.16 384.086 296.572L467.082 152.819C467.999 151.231 470.029 150.687 471.617 151.604V151.604Z" fill="#E1B24A" stroke="#E1B24A" stroke-linecap="round" stroke-linejoin="round"/>
<path fill-rule="evenodd" clip-rule="evenodd" d="M386.26 301.66C384.426 301.66 382.94 300.174 382.94 298.34L382.94 6.19504C382.94 4.36153 384.426 2.87518 386.26 2.87518V2.87518C388.093 2.87518 389.58 4.36154 389.58 6.19504L389.58 298.34C389.58 300.174 388.093 301.66 386.26 301.66V301.66Z" fill="#E1B24A" stroke="#E1B24A" stroke-linecap="round" stroke-linejoin="round"/>
<path fill-rule="evenodd" clip-rule="evenodd" d="M386.652 5.43591C388.24 4.51917 390.27 5.06321 391.187 6.65106L474.183 150.404C475.1 151.992 474.556 154.022 472.968 154.939V154.939C471.38 155.856 469.349 155.312 468.433 153.724L385.437 9.97089C384.52 8.38304 385.064 6.35266 386.652 5.43591V5.43591Z" fill="#E1B24A" stroke="#E1B24A" stroke-linecap="round" stroke-linejoin="round"/>
<path fill-rule="evenodd" clip-rule="evenodd" d="M385.301 301.106C384.385 299.519 384.929 297.488 386.517 296.572L639.522 150.499C641.11 149.582 643.14 150.126 644.057 151.714V151.714C644.973 153.302 644.429 155.332 642.842 156.249L389.836 302.322C388.249 303.238 386.218 302.694 385.301 301.106V301.106Z" fill="#E1B24A" stroke="#E1B24A" stroke-linecap="round" stroke-linejoin="round"/>
</svg>
