<svg width="83" height="100" viewBox="0 0 83 100" fill="none" xmlns="http://www.w3.org/2000/svg">
<g clip-path="url(#clip0)">
<path fill-rule="evenodd" clip-rule="evenodd" d="M41.32 0C41.14 0.87 40.98 1.8 40.85 2.79C40.71 1.8 40.56 0.87 40.36 0V7.25C39.49 16.68 38.82 28.69 30.92 35.88C25.14 41.15 12.09 42.92 0 42.02C15.05 45.37 25.67 50.23 31.06 56.66C38.4 65.43 37.95 78.87 40.37 95.11V99.07C40.45 99.22 40.53 99.37 40.62 99.5C40.7 99.06 40.78 98.62 40.86 98.18C40.93 98.62 41.01 99.06 41.09 99.5C41.17 99.37 41.25 99.23 41.33 99.07V95.26C43.82 78.96 43.34 65.45 50.88 56.66C56.39 50.23 67.26 45.37 82.66 42.02C70.29 42.92 56.93 41.15 51.01 35.88C42.87 28.64 42.23 16.49 41.33 7.02V0H41.32Z" fill="#E1B24A"/>
</g>
<defs>
<clipPath id="clip0">
<rect width="82.65" height="99.49" fill="white"/>
</clipPath>
</defs>
</svg>
