<svg width="253" height="227" viewBox="0 0 253 227" fill="none" xmlns="http://www.w3.org/2000/svg">
<path d="M7.21874 226.257H245.781C249.479 226.257 252.478 222.02 252.478 216.797V11.4499C252.478 6.22634 249.479 1.9895 245.781 1.9895H7.21874C3.52118 1.9895 0.522095 6.22634 0.522095 11.4499V216.797C0.522095 222.026 3.52118 226.257 7.21874 226.257Z" fill="white"/>
<path d="M245.781 227H7.2187C3.24031 227 0 222.422 0 216.802V11.4501C0 5.82982 3.24031 1.2522 7.2187 1.2522H245.781C249.763 1.2522 253 5.82982 253 11.4501V216.797C253 222.422 249.763 227 245.781 227ZM7.2187 2.73229C3.81637 2.73229 1.0477 6.64362 1.0477 11.4501V216.797C1.0477 221.604 3.81637 225.515 7.2187 225.515H245.781C249.184 225.515 251.952 221.604 251.952 216.797V11.4501C251.952 6.64362 249.184 2.73229 245.781 2.73229H7.2187Z" fill="#D75A34"/>
<path d="M0.522095 30.2537H252.478V10.8293C252.478 5.60574 249.479 1.3689 245.781 1.3689H7.21874C3.52118 1.3689 0.522095 5.60574 0.522095 10.8293V30.2537Z" fill="white"/>
<path d="M252.478 30.9914H0.52205C0.234023 30.9914 0 30.6608 0 30.2539V10.8295C0 5.20921 3.24031 0.631592 7.2187 0.631592H245.781C249.763 0.631592 253 5.20921 253 10.8295V30.2539C253 30.6608 252.766 30.9914 252.478 30.9914ZM1.0477 29.5164H251.956V10.8295C251.956 6.02301 249.187 2.11169 245.785 2.11169H7.2187C3.81637 2.11169 1.0477 6.02301 1.0477 10.8295V29.5164Z" fill="#D75A34"/>
<path d="M105.155 11.2262H46.2248C45.9368 11.2262 45.7028 10.8956 45.7028 10.4887C45.7028 10.0818 45.9368 9.75122 46.2248 9.75122H105.155C105.443 9.75122 105.677 10.0818 105.677 10.4887C105.677 10.8956 105.443 11.2262 105.155 11.2262Z" fill="#D75A34"/>
<path d="M105.155 16.516H46.2248C45.9368 16.516 45.7028 16.1854 45.7028 15.7785C45.7028 15.3716 45.9368 15.041 46.2248 15.041H105.155C105.443 15.041 105.677 15.3716 105.677 15.7785C105.677 16.1854 105.443 16.516 105.155 16.516Z" fill="#D75A34"/>
<path d="M105.155 21.8058H46.2248C45.9368 21.8058 45.7028 21.4752 45.7028 21.0683C45.7028 20.6614 45.9368 20.3308 46.2248 20.3308H105.155C105.443 20.3308 105.677 20.6614 105.677 21.0683C105.677 21.4752 105.443 21.8058 105.155 21.8058Z" fill="#D75A34"/>
<path d="M241.054 11.2262H171.301C171.013 11.2262 170.779 10.8956 170.779 10.4887C170.779 10.0818 171.013 9.75122 171.301 9.75122H241.054C241.342 9.75122 241.576 10.0818 241.576 10.4887C241.576 10.8956 241.342 11.2262 241.054 11.2262Z" fill="#D75A34"/>
<path d="M241.054 16.516H171.301C171.013 16.516 170.779 16.1854 170.779 15.7785C170.779 15.3716 171.013 15.041 171.301 15.041H241.054C241.342 15.041 241.576 15.3716 241.576 15.7785C241.576 16.1854 241.342 16.516 241.054 16.516Z" fill="#D75A34"/>
<path d="M241.054 21.8058H171.301C171.013 21.8058 170.779 21.4752 170.779 21.0683C170.779 20.6614 171.013 20.3308 171.301 20.3308H241.054C241.342 20.3308 241.576 20.6614 241.576 21.0683C241.576 21.4752 241.342 21.8058 241.054 21.8058Z" fill="#D75A34"/>
<path d="M33.1736 15.8143C33.1736 18.2557 34.5741 20.2291 36.2987 20.2291C38.0269 20.2291 39.4274 18.2506 39.4274 15.8143C39.4274 13.3729 38.0269 11.3994 36.2987 11.3994C34.5741 11.3943 33.1736 13.3729 33.1736 15.8143Z" fill="#5FC8A9"/>
<path d="M36.2987 20.9714C34.2861 20.9714 32.6479 18.6572 32.6479 15.8139C32.6479 12.9707 34.2861 10.6565 36.2987 10.6565C38.3113 10.6565 39.9495 12.9707 39.9495 15.8139C39.9495 18.6572 38.3149 20.9714 36.2987 20.9714ZM36.2987 12.1366C34.8622 12.1366 33.6956 13.7845 33.6956 15.8139C33.6956 17.8434 34.8622 19.4913 36.2987 19.4913C37.7352 19.4913 38.9018 17.8434 38.9018 15.8139C38.9054 13.7845 37.7352 12.1366 36.2987 12.1366Z" fill="#D75A34"/>
<path d="M20.666 15.8143C20.666 18.2557 22.0666 20.2291 23.7911 20.2291C25.5193 20.2291 26.9162 18.2506 26.9162 15.8143C26.9162 13.3729 25.5157 11.3994 23.7911 11.3994C22.0666 11.3943 20.666 13.3729 20.666 15.8143Z" fill="#F7929A"/>
<path d="M23.7911 20.9714C21.7785 20.9714 20.1404 18.6572 20.1404 15.8139C20.1404 12.9707 21.7785 10.6565 23.7911 10.6565C25.8037 10.6565 27.4419 12.9707 27.4419 15.8139C27.4419 18.6572 25.8073 20.9714 23.7911 20.9714ZM23.7911 12.1366C22.3546 12.1366 21.1881 13.7845 21.1881 15.8139C21.1881 17.8434 22.3546 19.4913 23.7911 19.4913C25.2277 19.4913 26.3942 17.8434 26.3942 15.8139C26.3978 13.7845 25.2277 12.1366 23.7911 12.1366Z" fill="#D75A34"/>
<path d="M14.1767 17.5065C14.8372 15.2538 14.0785 12.6703 12.482 11.7361C10.8856 10.8019 9.05597 11.8708 8.39545 14.1235C7.73492 16.3762 8.49363 18.9597 10.0901 19.8939C11.6865 20.8281 13.5161 19.7592 14.1767 17.5065Z" fill="#61AECA"/>
<path d="M11.2836 20.9714C9.27097 20.9714 7.63281 18.6572 7.63281 15.8139C7.63281 12.9707 9.27097 10.6565 11.2836 10.6565C13.2962 10.6565 14.9343 12.9707 14.9343 15.8139C14.9343 18.6572 13.2962 20.9714 11.2836 20.9714ZM11.2836 12.1366C9.84703 12.1366 8.68051 13.7845 8.68051 15.8139C8.68051 17.8434 9.84703 19.4913 11.2836 19.4913C12.7201 19.4913 13.8866 17.8434 13.8866 15.8139C13.8866 13.7845 12.7201 12.1366 11.2836 12.1366Z" fill="#D75A34"/>
</svg>
