<svg width="253" height="227" viewBox="0 0 253 227" fill="none" xmlns="http://www.w3.org/2000/svg">
<path d="M7.21874 226.047H245.781C249.479 226.047 252.478 221.81 252.478 216.586V11.2395C252.478 6.01589 249.479 1.77905 245.781 1.77905H7.21874C3.52118 1.77905 0.522095 6.01589 0.522095 11.2395V216.586C0.522095 221.815 3.52118 226.047 7.21874 226.047Z" fill="white"/>
<path d="M245.781 226.79H7.2187C3.24031 226.79 0 222.212 0 216.592V11.2397C0 5.61937 3.24031 1.04175 7.2187 1.04175H245.781C249.763 1.04175 253 5.61937 253 11.2397V216.587C253 222.212 249.763 226.79 245.781 226.79ZM7.2187 2.52185C3.81637 2.52185 1.0477 6.43317 1.0477 11.2397V216.587C1.0477 221.393 3.81637 225.304 7.2187 225.304H245.781C249.184 225.304 251.952 221.393 251.952 216.587V11.2397C251.952 6.43317 249.184 2.52185 245.781 2.52185H7.2187Z" fill="black"/>
<path d="M0.522095 30.0432H252.478V10.6189C252.478 5.39529 249.479 1.15845 245.781 1.15845H7.21874C3.52118 1.15845 0.522095 5.39529 0.522095 10.6189V30.0432Z" fill="white"/>
<path d="M252.478 30.7809H0.52205C0.234023 30.7809 0 30.4503 0 30.0434V10.6191C0 4.99876 3.24031 0.421143 7.2187 0.421143H245.781C249.763 0.421143 253 4.99876 253 10.6191V30.0434C253 30.4503 252.766 30.7809 252.478 30.7809ZM1.0477 29.3059H251.956V10.6191C251.956 5.81256 249.187 1.90124 245.785 1.90124H7.2187C3.81637 1.90124 1.0477 5.81256 1.0477 10.6191V29.3059Z" fill="black"/>
<path d="M105.155 11.0158H46.2248C45.9368 11.0158 45.7028 10.6852 45.7028 10.2783C45.7028 9.87138 45.9368 9.54077 46.2248 9.54077H105.155C105.443 9.54077 105.677 9.87138 105.677 10.2783C105.677 10.6852 105.443 11.0158 105.155 11.0158Z" fill="black"/>
<path d="M105.155 16.3053H46.2248C45.9368 16.3053 45.7028 15.9747 45.7028 15.5678C45.7028 15.1609 45.9368 14.8303 46.2248 14.8303H105.155C105.443 14.8303 105.677 15.1609 105.677 15.5678C105.677 15.9747 105.443 16.3053 105.155 16.3053Z" fill="black"/>
<path d="M105.155 21.5954H46.2248C45.9368 21.5954 45.7028 21.2648 45.7028 20.8579C45.7028 20.451 45.9368 20.1204 46.2248 20.1204H105.155C105.443 20.1204 105.677 20.451 105.677 20.8579C105.677 21.2648 105.443 21.5954 105.155 21.5954Z" fill="black"/>
<path d="M241.054 11.0158H171.301C171.013 11.0158 170.779 10.6852 170.779 10.2783C170.779 9.87138 171.013 9.54077 171.301 9.54077H241.054C241.342 9.54077 241.576 9.87138 241.576 10.2783C241.576 10.6852 241.342 11.0158 241.054 11.0158Z" fill="black"/>
<path d="M241.054 16.3053H171.301C171.013 16.3053 170.779 15.9747 170.779 15.5678C170.779 15.1609 171.013 14.8303 171.301 14.8303H241.054C241.342 14.8303 241.576 15.1609 241.576 15.5678C241.576 15.9747 241.342 16.3053 241.054 16.3053Z" fill="black"/>
<path d="M241.054 21.5954H171.301C171.013 21.5954 170.779 21.2648 170.779 20.8579C170.779 20.451 171.013 20.1204 171.301 20.1204H241.054C241.342 20.1204 241.576 20.451 241.576 20.8579C241.576 21.2648 241.342 21.5954 241.054 21.5954Z" fill="black"/>
<path d="M33.1736 15.6036C33.1736 18.045 34.5741 20.0185 36.2987 20.0185C38.0269 20.0185 39.4274 18.0399 39.4274 15.6036C39.4274 13.1622 38.0269 11.1887 36.2987 11.1887C34.5741 11.1836 33.1736 13.1622 33.1736 15.6036Z" fill="#5FC8A9"/>
<path d="M36.2987 20.761C34.2861 20.761 32.6479 18.4467 32.6479 15.6035C32.6479 12.7603 34.2861 10.446 36.2987 10.446C38.3113 10.446 39.9495 12.7603 39.9495 15.6035C39.9495 18.4467 38.3149 20.761 36.2987 20.761ZM36.2987 11.9261C34.8622 11.9261 33.6956 13.5741 33.6956 15.6035C33.6956 17.6329 34.8622 19.2809 36.2987 19.2809C37.7352 19.2809 38.9018 17.6329 38.9018 15.6035C38.9054 13.5741 37.7352 11.9261 36.2987 11.9261Z" fill="black"/>
<path d="M20.666 15.6036C20.666 18.045 22.0666 20.0185 23.7911 20.0185C25.5193 20.0185 26.9162 18.0399 26.9162 15.6036C26.9162 13.1622 25.5157 11.1887 23.7911 11.1887C22.0666 11.1836 20.666 13.1622 20.666 15.6036Z" fill="#F7929A"/>
<path d="M23.7911 20.761C21.7785 20.761 20.1404 18.4467 20.1404 15.6035C20.1404 12.7603 21.7785 10.446 23.7911 10.446C25.8037 10.446 27.4419 12.7603 27.4419 15.6035C27.4419 18.4467 25.8073 20.761 23.7911 20.761ZM23.7911 11.9261C22.3546 11.9261 21.1881 13.5741 21.1881 15.6035C21.1881 17.6329 22.3546 19.2809 23.7911 19.2809C25.2277 19.2809 26.3942 17.6329 26.3942 15.6035C26.3978 13.5741 25.2277 11.9261 23.7911 11.9261Z" fill="black"/>
<path d="M14.1767 17.2958C14.8372 15.0431 14.0785 12.4596 12.482 11.5254C10.8856 10.5912 9.05597 11.6601 8.39545 13.9128C7.73492 16.1655 8.49363 18.749 10.0901 19.6832C11.6865 20.6174 13.5161 19.5485 14.1767 17.2958Z" fill="#61AECA"/>
<path d="M11.2836 20.761C9.27097 20.761 7.63281 18.4467 7.63281 15.6035C7.63281 12.7603 9.27097 10.446 11.2836 10.446C13.2962 10.446 14.9343 12.7603 14.9343 15.6035C14.9343 18.4467 13.2962 20.761 11.2836 20.761ZM11.2836 11.9261C9.84703 11.9261 8.68051 13.5741 8.68051 15.6035C8.68051 17.6329 9.84703 19.2809 11.2836 19.2809C12.7201 19.2809 13.8866 17.6329 13.8866 15.6035C13.8866 13.5741 12.7201 11.9261 11.2836 11.9261Z" fill="black"/>
</svg>
